<svg xmlns="http://www.w3.org/2000/svg" xmlns:xlink="http://www.w3.org/1999/xlink" width="52" height="52" viewBox="0 0 52 52">
  <defs>
    <path id="icon-users-a" d="m32.272375 24.271c-.5625028.593753-1.2656208.890625-2.109375.890625s-1.5546846-.296872-2.1328125-.890625-.8671875-1.3046834-.8671875-2.1328125.2890596-1.5312471.8671875-2.109375 1.2890583-.8671875 2.1328125-.8671875 1.5546846.2890596 2.1328125.8671875.8671875 1.2812459.8671875 2.109375-.296872 1.5390595-.890625 2.1328125zm-8.015625 0c-.5625028.593753-1.2578084.890625-2.0859375.890625s-1.5390595-.296872-2.1328125-.890625-.890625-1.3046834-.890625-2.1328125.296872-1.5312471.890625-2.109375 1.3046834-.8671875 2.1328125-.8671875 1.5312471.2890596 2.109375.8671875.8671875 1.2812459.8671875 2.109375-.296872 1.5390595-.890625 2.1328125zm-4.96875 3.234375c1.0625053-.2500013 2.0234332-.375 2.8828125-.375s1.8046823.1249987 2.8359375.375c1.0312552.2500012 1.9843706.6562472 2.859375 1.21875s1.3125 1.2031214 1.3125 1.921875v2.484375h-14.015625v-2.484375c0-.7187536.4296832-1.3593722 1.2890625-1.921875s1.8046823-.9687488 2.8359375-1.21875zm10.875-.375c.8750044 0 1.8281198.1249987 2.859375.375 1.0312552.2500012 1.9765582.6562472 2.8359375 1.21875s1.2890625 1.2031214 1.2890625 1.921875v2.484375h-6v-2.484375c0-1.3437567-.6562434-2.4999952-1.96875-3.46875.406252-.0312502.7343737-.046875.984375-.046875z"/>
  </defs>
  <g fill="none" fill-rule="evenodd" opacity=".5">
    <use fill="#000" xlink:href="#icon-users-a"/>
    <use fill="#fff" xlink:href="#icon-users-a"/>
  </g>
</svg>
