<svg xmlns="http://www.w3.org/2000/svg" xmlns:xlink="http://www.w3.org/1999/xlink" width="52" height="52" viewBox="0 0 52 52">
  <defs>
    <path id="icon-idea-a" d="m18.3203125 32.991625 1.6757813-1.6757812 1.2890624 1.2890624-1.6757812 1.6757813zm6.8320313 3.5664062v-2.7070312h1.8476562v2.7070312zm-6.4023438-10.9570312v1.8476563h-2.75v-1.8476563zm10.0976562-3.8242187c.8307334.4869816 1.4967423 1.1458291 1.9980469 1.9765625.5013046.8307333.7519531 1.7473908.7519531 2.75 0 1.5182367-.537104 2.8144477-1.6113281 3.8886718s-2.3704351 1.6113281-3.8886719 1.6113281c-1.5182367 0-2.8144477-.537104-3.8886718-1.6113281s-1.6113282-2.3704351-1.6113282-3.8886718c0-1.0026092.2434872-1.9192667.7304688-2.75.4869816-.8307334 1.160152-1.4895809 2.0195312-1.9765625v-4.4257813h5.5zm4.5546876 3.8242187h2.75v1.8476563h-2.75zm-2.5351563 7.0039062 1.2890625-1.2460937 1.6757812 1.6328125-1.2890624 1.2890625z"/>
  </defs>
  <g fill="none" fill-rule="evenodd">
    <use fill="#000" xlink:href="#icon-idea-a"/>
    <use fill="#101f30" xlink:href="#icon-idea-a"/>
  </g>
</svg>
