<svg height="22" viewBox="0 0 30 22" width="30" xmlns="http://www.w3.org/2000/svg"><g fill="#fff" fill-rule="evenodd"><path d="m13.53 21.845c-.4077643-1.7128809-.7235494-3.4463608-.946-5.193-.3326472-2.1727733.1592324-4.3914036 1.379-6.22.7876109-1.10463514 1.7622846-2.06306429 2.88-2.832 1.7608992-1.14326628 3.6380596-2.0965956 5.6-2.844 1.8553019-.71179291 3.6315273-1.61465164 5.3-2.694.6361976-.48411025.9699176-1.26785817.878-2.062.4310995 1.49010699.7483461 3.01081808.949 4.549.173865 1.31907167.2073857 2.65285995.1 3.979-.1671617 1.5320554-.5433223 3.0340061-1.118 4.464-.6534026 1.5170542-1.6056718 2.8869615-2.8 4.028-1.7553912 1.629305-3.8518963 2.8468289-6.137 3.564-1.9683637.6704193-4.0123145 1.093989-6.085 1.261z"/><path d="m13.174 21.875c-.8721676.0835871-1.7496041.0976314-2.624.042-1.21355771-.0595576-2.41393555-.2791225-3.57-.653-1.36370437-.5018329-2.62986209-1.2367593-3.742-2.172-.86856959-.8612686-1.62336529-1.8301359-2.246-2.883-.39563015-.7226341-.72722967-1.4785204-.991-2.259.17945159.3973131.46928357.7346984.835.972.45233998.1780573.9395171.2499023 1.424.21.73735796-.018199 1.47251471-.088373 2.2-.21 1.52933055-.3205597 3.09792069-.4112238 4.654-.269.65698818.1116532 1.281196.3670731 1.828.748.4878198.4306533.8650671.9721747 1.1 1.579.299655.8134721.5213183 1.6535827.662 2.509.259 1.318.47 2.386.47 2.386z"/></g></svg>