<svg xmlns="http://www.w3.org/2000/svg" xmlns:xlink="http://www.w3.org/1999/xlink" width="52" height="52" viewBox="0 0 52 52">
  <defs>
    <path id="icon-user-a" d="m29.3292969 23.6682969c-.8138062.8138061-1.7984969 1.2207031-2.9541016 1.2207031s-2.1402954-.406897-2.9541016-1.2207031c-.8138061-.8138062-1.2207031-1.7984969-1.2207031-2.9541016s.406897-2.1402954 1.2207031-2.9541015c.8138062-.8138062 1.7984969-1.2207032 2.9541016-1.2207032s2.1402954.406897 2.9541016 1.2207032c.8138061.8138061 1.2207031 1.7984968 1.2207031 2.9541015s-.406897 2.1402954-1.2207031 2.9541016zm-6.3476563 3.7597656c1.2369854-.2929702 2.368159-.4394531 3.3935547-.4394531 1.0253958 0 2.1565693.1464829 3.3935547.4394531s2.3681589.7731086 3.3935547 1.4404297c1.0253957.667321 1.5380859 1.4241494 1.5380859 2.2705078v2.0996094h-16.6503906v-2.0996094c0-.8463584.5126902-1.6031868 1.5380859-2.2705078 1.0253958-.6673211 2.1565694-1.1474595 3.3935547-1.4404297z"/>
  </defs>
  <g fill="none" fill-rule="evenodd" opacity=".5">
    <use fill="#000" xlink:href="#icon-user-a"/>
    <use fill="#fff" xlink:href="#icon-user-a"/>
  </g>
</svg>
