<svg height="52" viewBox="0 0 52 52" width="52" xmlns="http://www.w3.org/2000/svg" xmlns:xlink="http://www.w3.org/1999/xlink"><defs><path id="a" d="m33.7604167 16c.6250031 0 1.1545117.2170117 1.5885416.6510417.43403.4340299.6510417.9635385.6510417 1.5885416v15.5208334c0 .6250031-.2170117 1.1545117-.6510417 1.5885416-.4340299.43403-.9635385.6510417-1.5885416.6510417h-15.5208334c-.6250031 0-1.1545117-.2170117-1.5885416-.6510417-.43403-.4340299-.6510417-.9635385-.6510417-1.5885416v-15.5208334c0-.6250031.2170117-1.1545117.6510417-1.5885416.4340299-.43403.9635385-.6510417 1.5885416-.6510417zm-11.09375 15.5729167v-7.8125h-2.2395834v7.8125zm4.4270833 0v-11.1458334h-2.1875v11.1458334zm4.4791667 0v-4.4791667h-2.2395834v4.4791667z"/></defs><g fill="none" fill-rule="evenodd"><use fill="#000" xlink:href="#a"/><use fill="#101f30" xlink:href="#a"/></g></svg>