<svg fill="none" height="179" viewBox="0 0 1053 179" width="1053" xmlns="http://www.w3.org/2000/svg"><path clip-rule="evenodd" d="m457.266 146.172c6.536 0 12.441-1.318 17.716-3.956l2.236-16.684c-4.472 2.752-8.829 4.128-13.072 4.128-5.733 0-8.6-3.325-8.6-9.976v-47.9878h20.812v-15.48h-20.812v-36.292l-17.888 8.6v27.692h-13.588v15.48h13.588v52.6318c0 14.563 6.536 21.844 19.608 21.844zm-245.216 0c10.205 0 18.261-2.207 24.166-6.622 5.905-4.414 8.858-10.75 8.858-19.006 0-7.568-2.322-13.588-6.966-18.06-4.644-4.4718-11.954-8.3705-21.93-11.6958-5.963-2.2933-10.291-4.2713-12.986-5.934s-4.042-3.8127-4.042-6.45c0-2.5227 1.118-4.5007 3.354-5.934s5.246-2.15 9.03-2.15c7.224 0 13.187 2.4653 17.888 7.396l12.9-10.32c-7.339-8.8293-17.601-13.244-30.788-13.244-8.829 0-16.139 2.15-21.93 6.45s-8.686 10.234-8.686 17.802c0 6.88 2.265 12.4987 6.794 16.856s11.61 8.1418 21.242 11.3518c4.357 1.72 7.511 3.01 9.46 3.87s3.899 2.208 5.848 4.042c1.949 1.835 2.924 3.842 2.924 6.02 0 6.307-5.16 9.46-15.48 9.46-7.109 0-13.817-2.981-20.124-8.944l-12.728 10.836c3.096 4.358 7.683 7.826 13.76 10.406s12.556 3.87 19.436 3.87zm80.42 31.304 46.44-121.2598h-17.888l-21.844 57.4478c-1.032 2.638-1.835 5.218-2.408 7.74-.573-2.522-1.376-5.102-2.408-7.74l-21.672-57.4478h-17.716l32.852 86.3438-13.588 34.916zm111.982-37.926c-5.905 4.415-13.961 6.622-24.166 6.622-6.88 0-13.359-1.29-19.436-3.87s-10.664-6.048-13.76-10.406l12.728-10.836c6.307 5.963 13.015 8.944 20.124 8.944 10.32 0 15.48-3.153 15.48-9.46 0-2.178-.975-4.185-2.924-6.02-1.949-1.834-3.899-3.182-5.848-4.042s-5.103-2.15-9.46-3.87c-9.632-3.21-16.713-6.9945-21.242-11.3518s-6.794-9.976-6.794-16.856c0-7.568 2.895-13.502 8.686-17.802s13.101-6.45 21.93-6.45c13.187 0 23.449 4.4147 30.788 13.244l-12.9 10.32c-4.701-4.9307-10.664-7.396-17.888-7.396-3.784 0-6.794.7167-9.03 2.15s-3.354 3.4113-3.354 5.934c0 2.6373 1.347 4.7873 4.042 6.45s7.023 3.6407 12.986 5.934c9.976 3.3253 17.286 7.224 21.93 11.6958 4.644 4.472 6.966 10.492 6.966 18.06 0 8.256-2.953 14.592-8.858 19.006zm153.53-6.106c-7.109 8.486-17.143 12.728-30.1 12.728-12.269 0-21.987-4.099-29.154-12.298-7.167-8.198-10.75-19.464-10.75-33.798 0-14.3331 3.612-25.5705 10.836-33.7118s16.913-12.212 29.068-12.212c11.008 0 20.067 3.4973 27.176 10.492s10.664 17.2 10.664 30.616c0 4.9308-.229 8.7718-.688 11.5238h-59.168c.115 6.995 2.379 12.671 6.794 17.028 4.415 4.358 9.546 6.536 15.394 6.536 7.568 0 13.645-2.981 18.232-8.944zm-10.148-41.1078h-41.968c.459-7.6827 2.723-13.33 6.794-16.942s9.145-5.418 15.222-5.418c5.389 0 10.033 1.8347 13.932 5.504s5.905 9.288 6.02 16.856zm53.416 0v51.7718h-17.888v-87.8918h17.888v8.084c4.701-6.7653 12.097-10.148 22.188-10.148 10.893 0 18.691 4.1853 23.392 12.556 5.389-8.3707 14.047-12.556 25.972-12.556 9.517 0 17.171 2.752 22.962 8.256s8.686 13.8173 8.686 24.94v56.7598h-17.888v-52.6318c0-13.6453-5.389-20.468-16.168-20.468-5.045 0-9.231 1.8633-12.556 5.59s-4.988 8.9727-4.988 15.738v51.7718h-17.888v-52.6318c0-13.6453-5.389-20.468-16.168-20.468-5.045 0-9.231 1.8633-12.556 5.59s-4.988 8.9727-4.988 15.738zm160.916 53.8358c12.384 0 22.188-4.07 29.412-12.212 7.224-8.141 10.836-19.378 10.836-33.712 0-14.3331-3.612-25.5991-10.836-33.7978s-17.028-12.298-29.412-12.298-22.159 4.0993-29.326 12.298-10.75 19.4647-10.75 33.7978c0 14.334 3.583 25.571 10.75 33.712 7.167 8.142 16.942 12.212 29.326 12.212zm-16.168-24.682c4.013 5.218 9.403 7.826 16.168 7.826 6.88 0 12.327-2.58 16.34-7.74s6.02-12.269 6.02-21.328c0-9.0585-2.007-16.1965-6.02-21.4138s-9.46-7.826-16.34-7.826c-6.765 0-12.155 2.6087-16.168 7.826s-6.02 12.3553-6.02 21.4138c0 8.944 2.007 16.025 6.02 21.242zm92.804 22.618v-49.3638c0-8.1413 1.777-14.018 5.332-17.63s7.74-5.418 12.556-5.418c5.045 0 9.689 1.4333 13.932 4.3l2.58-16.512c-4.128-3.5547-9.059-5.332-14.792-5.332-9.173 0-15.709 4.2427-19.608 12.728v-10.664h-17.888v87.8918zm65.284 26.316-17.888 8.256v-122.4638h17.888v7.052c5.504-6.0773 12.556-9.116 21.156-9.116 11.123 0 19.923 4.0993 26.402 12.298s9.718 19.4647 9.718 33.7978c0 14.219-3.297 25.428-9.89 33.626-6.593 8.199-15.337 12.298-26.23 12.298-8.944 0-15.996-3.21-21.156-9.632zm18.576-41.108c-7.339 0-13.531-3.382-18.576-10.148v-38.1838c4.128-6.6507 10.32-9.976 18.576-9.976 6.536 0 11.639 2.6947 15.308 8.084s5.504 12.4413 5.504 21.1558c0 9.403-1.777 16.598-5.332 21.586s-8.715 7.482-15.48 7.482zm75.088-38.0118v52.8038h-17.888v-115.9278l17.888-8.256v44.72c5.5-6.9947 13.07-10.492 22.7-10.492 21.1 0 31.65 12.4987 31.65 37.496v52.4598h-17.89v-52.4598c0-6.9947-1.6-12.1833-4.81-15.566s-7.46-5.074-12.73-5.074c-12.61 0-18.92 6.7653-18.92 20.296z" fill="#292f36" fill-rule="evenodd"/><g fill="#0171ff"><path d="m124.478 114.682c-3.959 18.698 16.454 48.504 16.454 48.504-40.912 0-66.3354-26.813-75.5158-53.123-16.0664-48.5113 48.5458-106.64528 89.4578-106.64528 0 0-4.945 74.81858-30.396 111.26428z"/><path d="m68.5712 160.617c-66.44197 0 27.6528-123.3369-33.7293-157.46349-47.7522 48.73969-18.1039 61.47089 9.7846 98.57049 19.806 26.342 38.6622 58.893 23.9447 58.893z"/></g></svg>