<svg id="Logo" xmlns="http://www.w3.org/2000/svg" viewBox="0 0 148.473 21.95">
  <defs>
    <style>
      .cls-1 {
        fill: #3c3c3b;
      }

      .cls-2 {
        fill: #58257f;
      }

      .cls-3 {
        fill: #009de0;
      }
    </style>
  </defs>
  <path id="Path_1" data-name="Path 1" class="cls-1" d="M242.5,65.045c0,2.169-.636,3.293-4.028,3.293a9.636,9.636,0,0,1-3.581-.689l.379-1.7a10.825,10.825,0,0,0,3.23.534c1.567,0,1.825-.326,1.825-1.428,0-1.274-.034-1.377-2.1-1.825-2.771-.62-3.144-1.154-3.144-3.581,0-2.084.946-3.117,3.856-3.117a15.692,15.692,0,0,1,3.335.37l-.241,1.826a15.062,15.062,0,0,0-3.064-.344c-1.464,0-1.721.31-1.721,1.308,0,1.308.034,1.347,2.013,1.825C242.345,62.256,242.5,62.754,242.5,65.045Z" transform="translate(-194.961 -48.068)"/>
  <path id="Path_2" data-name="Path 2" class="cls-1" d="M303.636,63.389l2.479-5.784h2.307l-3.7,8.139v3.322H302.55V65.743l-3.7-8.143h2.307Z" transform="translate(-249.347 -48.978)"/>
  <path id="Path_3" data-name="Path 3" class="cls-1" d="M381.039,65.045c0,2.169-.636,3.293-4.028,3.293a9.635,9.635,0,0,1-3.581-.689l.385-1.709a10.826,10.826,0,0,0,3.23.54c1.567,0,1.825-.326,1.825-1.428,0-1.274-.034-1.377-2.1-1.825-2.771-.62-3.144-1.154-3.144-3.581,0-2.084.946-3.117,3.856-3.117a15.693,15.693,0,0,1,3.329.37l-.241,1.826a15.061,15.061,0,0,0-3.064-.344c-1.464,0-1.721.31-1.721,1.308,0,1.308.034,1.347,2.013,1.825C380.885,62.263,381.039,62.754,381.039,65.045Z" transform="translate(-312.763 -48.068)"/>
  <path id="Path_4" data-name="Path 4" class="cls-1" d="M441.992,69.1V59.542h-3.2V57.63h8.573v1.912h-3.2V69.1Z" transform="translate(-368.339 -49.003)"/>
  <path id="Path_5" data-name="Path 5" class="cls-1" d="M512.66,69.1V57.63h7.024v1.912h-4.855v2.771H519.3v1.912h-4.476v2.961h4.855V69.1Z" transform="translate(-431.151 -49.003)"/>
  <path id="Path_6" data-name="Path 6" class="cls-1" d="M586.479,61.651l-2.118,5.938h-2.754l-2.117-5.938-.19,7.419h-2.22L577.6,57.6h2.427l2.961,8.139,2.961-8.143h2.428l.521,11.47h-2.226Z" transform="translate(-485.928 -48.978)"/>
  <path id="Path_7" data-name="Path 7" class="cls-1" d="M682.882,60.01v4.751c0,1.91-1.1,3.528-4.341,3.528s-4.341-1.618-4.341-3.528V60.01c0-1.912,1.1-3.53,4.341-3.53S682.882,58.1,682.882,60.01Zm-6.507.12v4.512c0,1.085.551,1.739,2.169,1.739s2.169-.654,2.169-1.739V60.13c0-1.084-.551-1.738-2.169-1.738S676.375,59.046,676.375,60.13ZM695.2,68.117h-2.6l-2.633-3.787H687.9v3.787h-2.169V56.652h4.7c2.669,0,3.649,1.085,3.649,3.1v1.5a2.611,2.611,0,0,1-1.721,2.771Zm-3.293-8.194c0-.964-.413-1.359-1.566-1.359H687.9v3.892h2.444c1.187,0,1.566-.431,1.566-1.4Zm5.018,8.194V56.652H701.4c2.651,0,3.633,1.085,3.633,3.1v1.567c0,2-1.067,3.081-3.742,3.081H699.1v3.718Zm5.943-8.194c0-.946-.4-1.359-1.584-1.359H699.1v3.925h2.187c1.222,0,1.584-.449,1.584-1.4Z" transform="translate(-568.509 -48.025)"/>
  <path id="Path_8" data-name="Path 8" class="cls-1" d="M911.209,69.1H909.04V64.258h-4.251V69.1H902.62V57.63h2.169v4.717h4.251V57.63h2.169Z" transform="translate(-762.736 -49.003)"/>
  <path id="Path_9" data-name="Path 9" class="cls-2" d="M84.635,21.845a49.341,49.341,0,0,1-.946-5.193,8.807,8.807,0,0,1,1.379-6.22A11.639,11.639,0,0,1,87.948,7.6a29.7,29.7,0,0,1,5.6-2.844,28.654,28.654,0,0,0,5.3-2.694A2.264,2.264,0,0,0,99.726,0a30.621,30.621,0,0,1,.949,4.549,18.823,18.823,0,0,1,.1,3.979,16.882,16.882,0,0,1-1.118,4.464,12.3,12.3,0,0,1-2.8,4.028,16.114,16.114,0,0,1-6.137,3.564A25.135,25.135,0,0,1,84.635,21.845Z" transform="translate(-71.106 0)"/>
  <path id="Path_10" data-name="Path 10" class="cls-3" d="M13.173,101.115a16.514,16.514,0,0,1-2.624.042,13.8,13.8,0,0,1-3.57-.653,12.546,12.546,0,0,1-3.742-2.172A14.339,14.339,0,0,1,.991,95.449,14.114,14.114,0,0,1,0,93.19a2.275,2.275,0,0,0,.835.972,3.176,3.176,0,0,0,1.424.21,15.689,15.689,0,0,0,2.2-.21,15.714,15.714,0,0,1,4.654-.269,4.524,4.524,0,0,1,1.828.748,4.063,4.063,0,0,1,1.1,1.579,13.682,13.682,0,0,1,.662,2.509C12.962,100.047,13.173,101.115,13.173,101.115Z" transform="translate(0 -79.24)"/>
</svg>
