<svg id="Layer_1" data-name="Layer 1" xmlns="http://www.w3.org/2000/svg" viewBox="0 0 52 52"><defs><style>.cls-1{fill:none;}.cls-2{fill:#101f30;}</style></defs><title>icon-business-costumization-primary</title><rect class="cls-1" width="52" height="52"/><path class="cls-2" d="M34.91,19.85a1.89,1.89,0,0,1,1.38.59,2,2,0,0,1,.59,1.43v8a2,2,0,0,1-.59,1.43,1.88,1.88,0,0,1-1.38.58h-18a1.93,1.93,0,0,1-1.43-.58,2,2,0,0,1-.59-1.43v-8a2,2,0,0,1,2-2Zm0,10v-8h-2v4h-2v-4h-2v4h-2v-4h-2v4h-2v-4h-2v4h-2v-4h-2v8Z"/></svg>