<?xml version="1.0" encoding="utf-8"?>
<!-- Generator: Adobe Illustrator 23.0.0, SVG Export Plug-In . SVG Version: 6.00 Build 0)  -->
<svg version="1.1" id="Layer_1" xmlns="http://www.w3.org/2000/svg" xmlns:xlink="http://www.w3.org/1999/xlink" x="0px" y="0px"
	 viewBox="0 0 52 52" style="enable-background:new 0 0 52 52;" xml:space="preserve">
<style type="text/css">
	.st0{fill:#FFFFFF;}
	.st1{fill:none;}
</style>
<title>icon-execute-primary</title>
<path class="st0" d="M28,14.7c1.9,1.5,3.4,3.5,4.5,5.7c1.1,2.2,1.7,4.7,1.7,7.1c0,4.2-3.4,7.6-7.7,7.6c-4.2,0-7.6-3.4-7.7-7.6
	c0-3.1,1.1-6.2,3.1-8.5v0.4c0,0.9,0.3,1.8,1,2.5c0.7,0.7,1.6,1,2.5,1c0.9,0,1.7-0.3,2.3-1c0.6-0.7,0.9-1.6,0.9-2.5
	c0-0.7-0.1-1.4-0.2-2.1c-0.1-0.6-0.2-1.2-0.3-1.8L28,14.7z M26.3,32.3c2.5,0,4.6-2,4.6-4.6c0,0,0,0,0,0c0-1.3-0.2-2.6-0.6-3.9
	c-1.1,1.4-2.7,2.2-4.4,2.5c-0.8,0.1-1.5,0.5-2,1.1c-0.5,0.5-0.7,1.2-0.7,1.9c0,0.8,0.3,1.6,0.9,2.1C24.7,32,25.5,32.3,26.3,32.3z"/>
<rect class="st1" width="52" height="52"/>
</svg>
