<svg id="Layer_1" data-name="Layer 1" xmlns="http://www.w3.org/2000/svg" viewBox="0 0 52 52"><defs><style>.cls-1{fill:none;}.cls-2{fill:#fff;}</style></defs><title>icon-business-proccesses-white</title><rect class="cls-1" width="52" height="52"/><path class="cls-2" d="M33.5,15.83a1.8,1.8,0,0,1,1.31.53,1.73,1.73,0,0,1,.54,1.27v14.7a1.73,1.73,0,0,1-.54,1.26,1.77,1.77,0,0,1-1.31.54H18.85a1.77,1.77,0,0,1-1.31-.54A1.73,1.73,0,0,1,17,32.33V17.63a1.73,1.73,0,0,1,.54-1.27,1.8,1.8,0,0,1,1.31-.53Zm-11,5.5v-3.7H18.85v3.7Zm0,5.5v-3.7H18.85v3.7Zm0,5.5v-3.7H18.85v3.7Zm5.5-11v-3.7H24.35v3.7Zm0,5.5v-3.7H24.35v3.7Zm0,5.5v-3.7H24.35v3.7Zm5.5-11v-3.7H29.85v3.7Zm0,5.5v-3.7H29.85v3.7Zm0,5.5v-3.7H29.85v3.7Z"/></svg>