<svg id="Layer_1" data-name="Layer 1" xmlns="http://www.w3.org/2000/svg" viewBox="0 0 52 52"><defs><style>.cls-1{fill:none;}.cls-2{fill:#fff;}</style></defs><title>icon-nimble-primary</title><rect class="cls-1" width="52" height="52"/><path class="cls-2" d="M24.84,34a7.55,7.55,0,0,0,6.17-3l2.9,1.74a11.1,11.1,0,0,1-9.07,4.59A11.23,11.23,0,0,1,13.61,26.15a10.79,10.79,0,0,1,2.93-7.57A10.9,10.9,0,0,1,23.73,15v3.37A7.9,7.9,0,0,0,17,26.15,7.85,7.85,0,0,0,24.84,34Z"/><path class="cls-2" d="M26,15A11.23,11.23,0,0,1,36.13,26.15a11.17,11.17,0,0,1-1,4.59l-3-1.74a7.45,7.45,0,0,0,.58-2.85A7.59,7.59,0,0,0,30.8,21,7.76,7.76,0,0,0,26,18.34Z"/></svg>