<?xml version="1.0" encoding="utf-8"?>
<!-- Generator: Adobe Illustrator 23.0.0, SVG Export Plug-In . SVG Version: 6.00 Build 0)  -->
<svg version="1.1" id="Layer_1" xmlns="http://www.w3.org/2000/svg" xmlns:xlink="http://www.w3.org/1999/xlink" x="0px" y="0px"
	 viewBox="0 0 52 52" style="enable-background:new 0 0 52 52;" xml:space="preserve">
<style type="text/css">
	.st0{fill:#101F30;}
	.st1{fill:none;}
</style>
<title>icon-test-primary</title>
<path class="st0" d="M36.2,31.2c0.2,0.1,0.3,0.4,0.3,0.6c0,0.3-0.1,0.5-0.3,0.6l-2,2.1c-0.2,0.2-0.4,0.3-0.6,0.3
	c-0.2,0-0.5-0.1-0.6-0.3l-8.2-7.7c-1,0.4-2.1,0.6-3.2,0.4c-1.1-0.2-2.1-0.7-2.9-1.5c-0.9-0.8-1.4-1.9-1.7-3
	c-0.3-1.1-0.1-2.3,0.4-3.4l4,3.6l2.5-2.7L20,16.6c1-0.5,2.2-0.7,3.4-0.5c1.2,0.2,2.3,0.7,3.2,1.5c0.8,0.8,1.4,1.7,1.7,2.8
	c0.3,1,0.2,2.1-0.2,3.1L36.2,31.2z"/>
<rect class="st1" width="52" height="52"/>
</svg>
