<?xml version="1.0" encoding="utf-8"?>
<!-- Generator: Adobe Illustrator 23.0.0, SVG Export Plug-In . SVG Version: 6.00 Build 0)  -->
<svg version="1.1" id="Layer_1" xmlns="http://www.w3.org/2000/svg" xmlns:xlink="http://www.w3.org/1999/xlink" x="0px" y="0px"
	 viewBox="0 0 52 52" style="enable-background:new 0 0 52 52;" xml:space="preserve">
<style type="text/css">
	.st0{fill:#101F30;}
	.st1{fill:none;}
</style>
<title>icon-delegate-primary</title>
<polygon class="st0" points="20.5,23.3 23.3,23.3 23.3,25.2 20.5,25.2 20.5,28.1 18.5,28.1 18.5,25.2 15.6,25.2 15.6,23.3 
	18.5,23.3 18.5,20.4 20.5,20.4 "/>
<path class="st0" d="M25.9,27.6c1-0.3,2.1-0.4,3.1-0.4c1.1,0,2.1,0.1,3.1,0.4c1.1,0.3,2.2,0.7,3.1,1.3c0.8,0.4,1.4,1.2,1.4,2.1v1.9
	H21.4V31c0.1-0.9,0.6-1.7,1.4-2.1C23.8,28.3,24.8,27.8,25.9,27.6z"/>
<path class="st0" d="M31.8,24.1c-1.5,1.5-3.9,1.5-5.4,0c0,0,0,0,0,0c-1.5-1.5-1.5-3.9,0-5.4c1.5-1.5,3.9-1.5,5.4,0
	c0.7,0.7,1.1,1.7,1.1,2.7C32.9,22.4,32.5,23.4,31.8,24.1z"/>
<rect class="st1" width="52" height="52"/>
</svg>
