<svg height="52" viewBox="0 0 52 52" width="52" xmlns="http://www.w3.org/2000/svg"><path d="m34.25 21.5351562 4.4824219 4.4824219h-3.375c0 2.4961062-.8788975 4.6230381-2.6367188 6.3808594s-3.8671752 2.6367187-6.328125 2.6367187c-1.7226648 0-3.3222582-.4746046-4.7988281-1.4238281l1.6347656-1.6347656c.9492235.5273464 2.0039005.7910156 3.1640625.7910156 1.8632906 0 3.454095-.6591731 4.772461-1.9775391 1.3183659-1.3183659 1.977539-2.9091703 1.977539-4.7724609h-3.375zm-14.6074219 4.4824219h3.375l-4.5351562 4.4824219-4.4824219-4.4824219h3.375c0-2.4961062.8788975-4.6230381 2.6367187-6.3808594 1.7578213-1.7578213 3.8847532-2.6367187 6.3808594-2.6367187 1.7226649 0 3.3222583.4746046 4.7988281 1.4238281l-1.6875 1.6347656c-.9492234-.5273464-1.9863225-.7910156-3.1113281-.7910156-1.8632905 0-3.4540949.6591731-4.7724609 1.9775391-1.318366 1.3183659-1.9775391 2.9091703-1.9775391 4.7724609z" fill="#fff" opacity=".5"/></svg>