<svg xmlns="http://www.w3.org/2000/svg" width="52" height="52" viewBox="0 0 52 52">
  <path fill="#fff" d="m17.8985312 17.8828438c2.2148549-2.2148549 4.8779142-3.3222657 7.9892579-3.3222657 3.1113436 0 5.765614 1.0986219 7.9628906 3.2958985s3.2958984 4.8427579 3.2958984 7.9365234-1.0986218 5.7392468-3.2958984 7.9365234-4.851547 3.2958985-7.9628906 3.2958985c-3.1113437 0-5.7656141-1.0986219-7.9628907-3.2958985s-3.2958984-4.8427579-3.2958984-7.9365234 1.0898329-5.7304579 3.2695312-7.9101562zm6.8554688 16.8222656v-2.1621094c-.6328157 0-1.1689431-.2197244-1.6083984-.6591797-.4394554-.4394553-.6591797-.9755828-.6591797-1.6083984v-1.1074219l-5.3789063-5.3789062c-.1406257.7031285-.2109375 1.3710905-.2109375 2.0039062 0 2.2851677.7470629 4.2714759 2.241211 5.9589844 1.4941481 1.6875084 3.3661996 2.6718736 5.6162109 2.953125zm7.7519531-2.8476563c1.5820392-1.7226648 2.3730469-3.744129 2.3730469-6.0644531 0-1.8632906-.5185495-3.5507737-1.5556641-5.0625-1.0371145-1.5117263-2.3994056-2.6015592-4.086914-3.2695312v.4746093c0 .5976593-.2197244 1.1162088-.6591797 1.5556641s-.9580048.6591797-1.5556641.6591797h-2.2675781v2.2675781c0 .3164078-.1142567.5800771-.3427734.7910156-.2285168.2109386-.4833971.3164063-.7646485.3164063h-2.2675781v2.2675781h6.75c.3164078 0 .5800771.1142567.7910156.3427734.2109386.2285168.3164063.4833971.3164063.7646485v3.375h1.1601562c.49219 0 .9316387.1494125 1.3183594.4482422.3867207.2988296.6503899.6767555.7910156 1.133789z" opacity=".5"/>
</svg>
