<?xml version="1.0" encoding="utf-8"?>
<!-- Generator: Adobe Illustrator 23.0.0, SVG Export Plug-In . SVG Version: 6.00 Build 0)  -->
<svg version="1.1" id="Layer_1" xmlns="http://www.w3.org/2000/svg" xmlns:xlink="http://www.w3.org/1999/xlink" x="0px" y="0px"
	 viewBox="0 0 52 52" style="enable-background:new 0 0 52 52;" xml:space="preserve">
<style type="text/css">
	.st0{fill:#FFFFFF;}
	.st1{fill:none;}
</style>
<title>icon-tailor-white</title>
<path class="st0" d="M24,21.1l9.8,9.8v0.8h-2.4l-5.6-5.5L24,28c0.6,1.2,0.3,2.6-0.6,3.5c-1.2,1.2-3.2,1.3-4.5,0s-1.3-3.2,0-4.5
	c0.6-0.6,1.4-0.9,2.2-0.9c0.4,0,0.9,0.1,1.3,0.3l1.9-1.9l-1.9-1.9C22,22.9,21.6,23,21.1,23c-1.7,0-3.2-1.4-3.2-3.1
	c0-0.8,0.3-1.7,0.9-2.3c1.2-1.2,3.2-1.2,4.5,0c0.6,0.6,0.9,1.4,0.9,2.2C24.3,20.3,24.2,20.7,24,21.1z M20,21c0.6,0.6,1.6,0.6,2.2,0
	c0.3-0.3,0.5-0.7,0.5-1.1c0-0.4-0.2-0.8-0.5-1.1c-0.6-0.6-1.6-0.6-2.2,0c-0.3,0.3-0.5,0.7-0.5,1.1C19.5,20.3,19.7,20.7,20,21z
	 M20,30.5c0.6,0.6,1.6,0.6,2.2,0c0.3-0.3,0.5-0.7,0.5-1.1c0-0.4-0.2-0.8-0.5-1.1c-0.6-0.6-1.6-0.6-2.2,0c-0.3,0.3-0.5,0.7-0.5,1.1
	C19.5,29.8,19.7,30.2,20,30.5L20,30.5z M25.5,24.6c0,0.3,0.1,0.4,0.4,0.4s0.4-0.1,0.4-0.4s-0.1-0.4-0.4-0.4S25.5,24.3,25.5,24.6
	L25.5,24.6z M31.4,17.5h2.4v0.8l-5.6,5.6l-1.6-1.6L31.4,17.5z"/>
<rect class="st1" width="52" height="52"/>
</svg>
