<svg xmlns="http://www.w3.org/2000/svg" width="52" height="52" viewBox="0 0 52 52">
  <path fill="#fff" fill-rule="evenodd" d="M19.31 26.51c.9353856-.2370735 1.8951618-.3645963 2.86-.38.9583342.0143008 1.9116171.1418528 2.84.38 1.0137664.2421577 1.9802578.6510579 2.86 1.21.7436042.3705816 1.2401358 1.102113 1.31 1.93v2.48h-14v-2.48c.0639227-.8243033.5527938-1.5557152 1.29-1.93.869913-.5638893 1.8307102-.973243 2.84-1.21zM24.28 23.27c-.5479707.5786166-1.313169.901378-2.11.89-.8161553.0208733-1.6035409-.3020637-2.17-.89-.5817178-.5541343-.9045378-1.326726-.89-2.13-.025029-.808156.2992699-1.5879308.89-2.14.5616728-.5682992 1.3310741-.8825617 2.13-.87 1.6568542 0 3 1.3431458 3 3 .0205819.7994406-.2864966 1.5725559-.85 2.14zM32.3 23.27c-.5636839.5710251-1.3326228.8924481-2.135.8924481s-1.5713161-.321423-2.135-.8924481c-.5682992-.5616728-.8825617-1.3310741-.87-2.13-.0304124-.7992156.2740503-1.5748704.84-2.14.8557116-.8627584 2.1473566-1.1241063 3.2711624-.6618782s1.8577829 1.5567267 1.8588376 2.7718782c.0233157.8020231-.2756151 1.5799637-.83 2.16zM30.16 26.13c.9650215.0129103 1.9250886.1404716 2.86.38 1.0087308.2384606 1.9692455.647694 2.84 1.21.7372062.3742848 1.2260773 1.1056967 1.29 1.93v2.48h-6v-2.48c-.0439352-1.4184861-.7946244-2.720932-2-3.47.43-.03.76-.05 1.01-.05z" opacity=".5"/>
</svg>
