<?xml version="1.0" encoding="utf-8"?>
<!-- Generator: Adobe Illustrator 23.0.0, SVG Export Plug-In . SVG Version: 6.00 Build 0)  -->
<svg version="1.1" id="Layer_1" xmlns="http://www.w3.org/2000/svg" xmlns:xlink="http://www.w3.org/1999/xlink" x="0px" y="0px"
	 viewBox="0 0 52 52" style="enable-background:new 0 0 52 52;" xml:space="preserve">
<style type="text/css">
	.st0{fill:#FFFFFF;}
	.st1{fill:none;}
</style>
<title>icon-saas-dark</title>
<path class="st0" d="M33.9,22.8c2.9,0.2,5.2,2.6,5.2,5.6c0,3.1-2.5,5.6-5.6,5.6H18.9c-3.7,0-6.7-3-6.8-6.8c0-1.7,0.6-3.3,1.7-4.5
	c1.1-1.2,2.6-2,4.3-2.2c0.7-1.4,1.8-2.5,3.1-3.3c3.1-1.9,7-1.6,9.8,0.7C32.5,19.2,33.6,20.9,33.9,22.8z M33.5,31.8
	c0.9,0,1.8-0.3,2.4-1c1.3-1.3,1.3-3.4,0-4.7c-0.6-0.7-1.5-1-2.4-1h-1.7v-0.6c0-3.4-2.8-6.1-6.2-6.2c-2,0-3.8,0.9-5,2.5
	c1.4,0.4,2.7,1.3,3.6,2.4c0.9,1.2,1.4,2.6,1.4,4.1h-2.2c0-1.2-0.4-2.4-1.3-3.3c-1.8-1.7-4.6-1.7-6.4,0s-1.7,4.6,0,6.4
	c0.8,0.9,2,1.3,3.2,1.3L33.5,31.8z"/>
<rect class="st1" width="52" height="52"/>
</svg>
