<?xml version="1.0" encoding="utf-8"?>
<!-- Generator: Adobe Illustrator 23.0.0, SVG Export Plug-In . SVG Version: 6.00 Build 0)  -->
<svg version="1.1" id="Layer_1" xmlns="http://www.w3.org/2000/svg" xmlns:xlink="http://www.w3.org/1999/xlink" x="0px" y="0px"
	 viewBox="0 0 52 52" style="enable-background:new 0 0 52 52;" xml:space="preserve">
<style type="text/css">
	.st0{fill:#FFFFFF;}
	.st1{fill:none;}
</style>
<title>icon-create-primary</title>
<rect x="15.7" y="23.4" class="st0" width="2.9" height="1.9"/>
<rect x="18.5" y="29.9" transform="matrix(0.7071 -0.7071 0.7071 0.7071 -16.0621 22.9865)" class="st0" width="2.5" height="1.9"/>
<path class="st0" d="M29.2,19.4c0.9,0.5,1.6,1.2,2.1,2.1c0.5,0.9,0.8,1.9,0.8,2.9c0,3.2-2.6,5.8-5.8,5.8c-3.2,0-5.7-2.6-5.8-5.7
	c0,0,0,0,0,0c0-1,0.3-2,0.8-2.9c0.5-0.9,1.2-1.6,2.1-2.1v-4.6h5.8L29.2,19.4z"/>
<rect x="25.3" y="32" class="st0" width="1.9" height="2.8"/>
<polygon class="st0" points="31.3,30.7 32.6,29.4 34.4,31.1 33,32.4 "/>
<rect x="33.9" y="23.4" class="st0" width="2.9" height="1.9"/>
<rect class="st1" width="52" height="52"/>
</svg>
