<svg xmlns="http://www.w3.org/2000/svg" width="52" height="52" viewBox="0 0 52 52">
  <path fill="#fff" d="m33.0003753 19.0163753c.5371417-.010546 1.0547225.2015535 1.43.586.3844466.3752776.5965461.8928584.586 1.43v9.984c.0105461.5371417-.2015534 1.0547225-.586 1.43-.3752775.3844466-.8928583.5965461-1.43.586h-15.984c-.5371416.0105461-1.0547224-.2015534-1.43-.586-.3844465-.3752775-.596546-.8928583-.586-1.43v-12c-.010546-.5371416.2015535-1.0547224.586-1.43.3752776-.3844465.8928584-.596546 1.43-.586h6l1.968 2.016zm0 12v-9.984h-15.984v9.984z"/>
</svg>
