<svg id="Layer_1" data-name="Layer 1" xmlns="http://www.w3.org/2000/svg" viewBox="0 0 52 52"><defs><style>.cls-1{fill:none;}.cls-2{fill:#101f30;}</style></defs><title>icon-colaborate-primary</title><rect class="cls-1" width="52" height="52"/><path class="cls-2" d="M19.31,26.51a12.45,12.45,0,0,1,2.86-.38,12.16,12.16,0,0,1,2.84.38,9.41,9.41,0,0,1,2.86,1.21,2.38,2.38,0,0,1,1.31,1.93v2.48h-14V29.65a2.37,2.37,0,0,1,1.29-1.93A9,9,0,0,1,19.31,26.51Z"/><path class="cls-2" d="M24.28,23.27a2.85,2.85,0,0,1-2.11.89A2.91,2.91,0,0,1,20,23.27a2.87,2.87,0,0,1-.89-2.13A2.81,2.81,0,0,1,20,19a2.93,2.93,0,0,1,2.13-.87,3,3,0,0,1,3,3A2.93,2.93,0,0,1,24.28,23.27Z"/><path class="cls-2" d="M32.3,23.27a3,3,0,0,1-4.27,0,2.93,2.93,0,0,1-.87-2.13A2.87,2.87,0,0,1,28,19a3,3,0,0,1,5.13,2.11A3,3,0,0,1,32.3,23.27Z"/><path class="cls-2" d="M30.16,26.13a12.18,12.18,0,0,1,2.86.38,9.09,9.09,0,0,1,2.84,1.21,2.37,2.37,0,0,1,1.29,1.93v2.48h-6V29.65a4.24,4.24,0,0,0-2-3.47C29.58,26.15,29.91,26.13,30.16,26.13Z"/></svg>