<svg id="Layer_1" data-name="Layer 1" xmlns="http://www.w3.org/2000/svg" viewBox="0 0 52 52"><defs><style>.cls-1{fill:none;}.cls-2{fill:#fff;opacity:0.5;}</style></defs><title>icon-graph-primary</title><rect class="cls-1" width="52" height="52"/><path class="cls-2" d="M33.72,15.82A2.25,2.25,0,0,1,36,18.09V33.8a2.25,2.25,0,0,1-2.27,2.27H18a2.16,2.16,0,0,1-1.6-.66,2.2,2.2,0,0,1-.66-1.61V18.09a2.18,2.18,0,0,1,.66-1.61,2.16,2.16,0,0,1,1.6-.66ZM22.49,31.59V23.68H20.22v7.91Zm4.48,0V20.3H24.75V31.59Zm4.53,0V27.05H29.24v4.54Z"/></svg>