<svg xmlns="http://www.w3.org/2000/svg" width="52" height="52" viewBox="0 0 52 52">
  <path fill="#FFF" d="M33.0003753,19.0163753 C33.537517,19.0058293 34.0550978,19.2179288 34.4303753,19.6023753 C34.8148219,19.9776529 35.0269214,20.4952337 35.0163753,21.0323753 L35.0163753,31.0163753 C35.0269214,31.553517 34.8148219,32.0710978 34.4303753,32.4463753 C34.0550978,32.8308219 33.537517,33.0429214 33.0003753,33.0323753 L17.0163753,33.0323753 C16.4792337,33.0429214 15.9616529,32.8308219 15.5863753,32.4463753 C15.2019288,32.0710978 14.9898293,31.553517 15.0003753,31.0163753 L15.0003753,19.0163753 C14.9898293,18.4792337 15.2019288,17.9616529 15.5863753,17.5863753 C15.9616529,17.2019288 16.4792337,16.9898293 17.0163753,17.0003753 L23.0163753,17.0003753 L24.9843753,19.0163753 L33.0003753,19.0163753 Z M33.0003753,31.0163753 L33.0003753,21.0323753 L17.0163753,21.0323753 L17.0163753,31.0163753 L33.0003753,31.0163753 Z" opacity=".5"/>
</svg>
