<svg id="Layer_1" data-name="Layer 1" xmlns="http://www.w3.org/2000/svg" viewBox="0 0 52 52"><defs><style>.cls-1{fill:none;}.cls-2{fill:#fff;}</style></defs><title>icon-communicate-white</title><rect class="cls-1" width="52" height="52"/><path class="cls-2" d="M31.3,24.84h1.88a6.83,6.83,0,0,1-1.9,4.8,7.73,7.73,0,0,1-4.6,2.47v3.55H24.5V32.11a7.68,7.68,0,0,1-4.6-2.49A6.87,6.87,0,0,1,18,24.84h1.83a5.06,5.06,0,0,0,1.72,3.91,5.83,5.83,0,0,0,4,1.58,5.7,5.7,0,0,0,4-1.58A5.07,5.07,0,0,0,31.3,24.84Z"/><path class="cls-2" d="M27.88,27.13a3.09,3.09,0,0,1-2.29,1,3.28,3.28,0,0,1-3.27-3.25v-6.5a3.12,3.12,0,0,1,1-2.31,3.21,3.21,0,0,1,2.31-.94,3.21,3.21,0,0,1,3.23,3.25v6.5A3.2,3.2,0,0,1,27.88,27.13Z"/></svg>