<svg id="Layer_1" data-name="Layer 1" xmlns="http://www.w3.org/2000/svg" viewBox="0 0 52 52"><defs><style>.cls-1{fill:none;}.cls-2{fill:#101f30;}</style></defs><title>icon-flexibility-primary</title><rect class="cls-1" width="52" height="52"/><path class="cls-2" d="M17.81,15.51h8.33a1.89,1.89,0,0,1,1.49.45,1.91,1.91,0,0,1,.74,1.43V23l1.83-3c1,1.59,2.44,3.88,4.26,6.88s3,4.86,3.41,5.61H25.63a8.19,8.19,0,0,1-2.64,2,6.3,6.3,0,0,1-4.47.2,6.67,6.67,0,0,1-4.67-7.21,6.44,6.44,0,0,1,2.08-4.16V17.94a2.38,2.38,0,0,1,.43-1.67A1.68,1.68,0,0,1,17.81,15.51ZM20.45,24a4.06,4.06,0,0,0-2.59.94,5.08,5.08,0,0,0-1.57,2.41A4,4,0,0,0,17,30.67a4,4,0,0,0,2.84,1.85A4.06,4.06,0,0,0,23,31.66a3.86,3.86,0,0,0,1.62-2.95A4.26,4.26,0,0,0,20.45,24Zm-2-5.79v3.65a6.52,6.52,0,0,1,4.16.06,6.14,6.14,0,0,1,3.3,2.48V18.2ZM30.2,24.8,27.05,30H33.4Z"/></svg>