<?xml version="1.0" encoding="utf-8"?>
<!-- Generator: Adobe Illustrator 23.0.0, SVG Export Plug-In . SVG Version: 6.00 Build 0)  -->
<svg version="1.1" id="Layer_1" xmlns="http://www.w3.org/2000/svg" xmlns:xlink="http://www.w3.org/1999/xlink" x="0px" y="0px"
	 viewBox="0 0 52 52" style="enable-background:new 0 0 52 52;" xml:space="preserve">
<style type="text/css">
	.st0{opacity:0.5;fill:#FFFFFF;enable-background:new    ;}
	.st1{fill:none;}
</style>
<title>icon-verify-primary</title>
<path class="st0" d="M30.1,27.1l5.6,5.6L34,34.4l-5.6-5.6v-0.9l-0.3-0.3c-1.3,1.1-3,1.8-4.8,1.7c-4,0-7.3-3.2-7.3-7.3c0,0,0,0,0,0
	c0-4,3.3-7.3,7.3-7.3c4,0,7.3,3.3,7.3,7.3c0,0,0,0,0,0c0,1.7-0.6,3.4-1.7,4.8l0.3,0.3L30.1,27.1z M19.7,25.7c2,2,5.2,2,7.2,0
	c2-2,2-5.2,0-7.2c-2-2-5.2-2-7.2,0C17.8,20.5,17.8,23.7,19.7,25.7z"/>
<rect class="st1" width="52" height="52"/>
</svg>
