<svg id="Layer_1" data-name="Layer 1" xmlns="http://www.w3.org/2000/svg" viewBox="0 0 52 52"><defs><style>.cls-1{fill:none;}.cls-2{fill:#fff;}</style></defs><title>icon-consolidate-white</title><rect class="cls-1" width="52" height="52"/><path class="cls-2" d="M34.17,24.62a2.23,2.23,0,0,1,1.62.66,2.28,2.28,0,0,1-1.62,3.89H32.8v3.7a1.73,1.73,0,0,1-.54,1.26,1.77,1.77,0,0,1-1.31.54H27.47V33.29a2.34,2.34,0,0,0-.73-1.74,2.44,2.44,0,0,0-1.76-.7,2.36,2.36,0,0,0-1.74.7,2.4,2.4,0,0,0-.71,1.74v1.38H19.05a1.77,1.77,0,0,1-1.31-.54,1.73,1.73,0,0,1-.54-1.26V29.38h1.38a2.49,2.49,0,0,0,2.49-2.49,2.49,2.49,0,0,0-2.49-2.49H17.2V20.92a1.73,1.73,0,0,1,.54-1.27,1.8,1.8,0,0,1,1.31-.53H22.7V17.74a2.24,2.24,0,0,1,.67-1.63A2.15,2.15,0,0,1,25,15.42a2.36,2.36,0,0,1,2.32,2.32v1.38H31a1.8,1.8,0,0,1,1.31.53,1.73,1.73,0,0,1,.54,1.27v3.7Z"/></svg>