<?xml version="1.0" encoding="utf-8"?>
<!-- Generator: Adobe Illustrator 23.0.0, SVG Export Plug-In . SVG Version: 6.00 Build 0)  -->
<svg version="1.1" id="Layer_1" xmlns="http://www.w3.org/2000/svg" xmlns:xlink="http://www.w3.org/1999/xlink" x="0px" y="0px"
	 viewBox="0 0 52 52" style="enable-background:new 0 0 52 52;" xml:space="preserve">
<style type="text/css">
	.st0{opacity:0.5;fill:#FFFFFF;enable-background:new    ;}
	.st1{fill:none;}
</style>
<title>icon-focus</title>
<path class="st0" d="M18.5,19.1c2.1-1.5,4.7-2.3,7.3-2.3c2.6,0,5.1,0.8,7.2,2.3c2.1,1.4,3.7,3.5,4.6,5.9c-0.9,2.4-2.5,4.4-4.6,5.9
	c-4.4,3-10.1,3-14.5,0c-2.1-1.4-3.7-3.5-4.7-5.9C14.8,22.5,16.4,20.5,18.5,19.1z M22,28.8c1,1,2.4,1.6,3.8,1.6
	c1.4,0,2.8-0.6,3.8-1.6c2.1-2.1,2.1-5.5,0-7.7c-1-1-2.4-1.6-3.8-1.6c-3,0-5.4,2.4-5.4,5.4C20.4,26.4,21,27.8,22,28.8z M23.5,22.6
	c0.6-0.6,1.4-1,2.3-0.9c0.9,0,1.7,0.3,2.3,0.9c1.3,1.3,1.3,3.3,0,4.6c0,0,0,0,0,0c-0.6,0.6-1.4,1-2.3,0.9c-1.8,0-3.2-1.4-3.2-3.2
	c0,0,0,0,0-0.1C22.6,24.1,22.9,23.2,23.5,22.6L23.5,22.6z"/>
<rect class="st1" width="52" height="52"/>
</svg>
