<?xml version="1.0" encoding="utf-8"?>
<!-- Generator: Adobe Illustrator 23.0.0, SVG Export Plug-In . SVG Version: 6.00 Build 0)  -->
<svg version="1.1" id="Layer_1" xmlns="http://www.w3.org/2000/svg" xmlns:xlink="http://www.w3.org/1999/xlink" x="0px" y="0px"
	 viewBox="0 0 52 52" style="enable-background:new 0 0 52 52;" xml:space="preserve">
<style type="text/css">
	.st0{fill:#FFFFFF;}
	.st1{fill:none;}
</style>
<title>icon-four-week-white</title>
<path class="st0" d="M33,17.2c0.5,0,1.1,0.2,1.4,0.6c0.4,0.4,0.6,0.9,0.6,1.4v14c0,1.1-0.9,2-2,2H19c-0.5,0-1.1-0.2-1.4-0.6
	c-0.4-0.4-0.6-0.9-0.6-1.4v-14c0-1.1,0.9-2,2-2h1v-2h2v2h8v-2h2v2L33,17.2z M33,33.2v-11H19v11H33z M31,24.2v2H21v-2H31z M28,28.2v2
	h-7v-2H28z"/>
<rect class="st1" width="52" height="52"/>
</svg>
