<?xml version="1.0" encoding="utf-8"?>
<!-- Generator: Adobe Illustrator 23.0.0, SVG Export Plug-In . SVG Version: 6.00 Build 0)  -->
<svg version="1.1" id="Layer_1" xmlns="http://www.w3.org/2000/svg" xmlns:xlink="http://www.w3.org/1999/xlink" x="0px" y="0px"
	 viewBox="0 0 52 52" style="enable-background:new 0 0 52 52;" xml:space="preserve">
<style type="text/css">
	.st0{fill:#FFFFFF;}
	.st1{fill:none;}
</style>
<title>icon-dependencies-white</title>
<path class="st0" d="M33,21.6c2.9,3.6,2.6,8.8-0.7,12c-1.7,1.7-4,2.6-6.3,2.6c-5,0-9-4-9-9l0,0c0-2.4,0.9-4.7,2.6-6.4
	c3.2-3.3,8.4-3.5,12-0.6l1.4-1.4c0.5,0.4,1,0.9,1.4,1.4L33,21.6z M21,32.1c2.7,2.7,7.2,2.7,9.9,0c0,0,0,0,0,0c1.3-1.3,2-3.1,2-5
	c0-3.8-3.1-7-6.9-7c0,0-0.1,0-0.1,0c-3.8,0-7,3.1-7,6.9c0,0,0,0.1,0,0.1C18.9,29,19.7,30.8,21,32.1L21,32.1z M29,15.1v2h-6v-2H29z
	 M25,28.1v-6h2v6H25z"/>
<rect class="st1" width="52" height="52"/>
</svg>
