<svg xmlns="http://www.w3.org/2000/svg" width="1924" height="52" viewBox="0 0 1924 52">
  <g fill="none" fill-rule="evenodd">
    <g transform="translate(1872)">
      <path d="m0 0h52v52h-52z"/>
      <path fill="#fff" fill-rule="nonzero" d="m31.6004074 27.475v5.225h-5.225v-5.225zm-1.075-11.475h2.1v2.1h1.025c.5592601-.0109375 1.0981573.209833 1.489.61.4001669.3908426.6209374.9297398.61 1.489v14.551c.0114771.5594565-.2089443 1.0987472-.609 1.49-.3910822.400423-.9303948.6212154-1.49.61h-14.55c-.5596053.0112154-1.0989178-.209577-1.49-.61-.400423-.3910822-.6212154-.9303947-.61-1.49v-14.55c-.0112154-.5596053.209577-1.0989178.61-1.49.3910822-.400423.9303947-.6212154 1.49-.61h1.025v-2.1h2.1v2.1h8.3zm3.125 18.75v-11.425h-14.55v11.425z"/>
    </g>
    <g transform="translate(1820)">
      <path d="m0 0h52v52h-52z"/>
      <path fill="#fff" fill-rule="nonzero" d="m20.2100578 17.2100578c1.4044369-1.4438617 3.3430472-2.2432625 5.357-2.209 2.0211588-.032062 3.9669775.7664357 5.383 2.209 1.4580992 1.396783 2.2680374 3.3380981 2.235 5.357-.0403292 1.2476963-.3059354 2.4778188-.784 3.631-.5030682 1.3305762-1.1396522 2.6067596-1.9 3.809-.7446667 1.168-1.4893334 2.268-2.234 3.3-.7446667 1.032-1.3736667 1.852-1.887 2.46l-.812.863c-.2-.2-.4706667-.5046667-.812-.914-.3413334-.4093334-.9413334-1.1963334-1.8-2.361-.8633334-1.168-1.6336667-2.3013334-2.311-3.4-.7207072-1.1867428-1.3334966-2.4357488-1.831-3.732-.4927148-1.1585605-.7682929-2.3978143-.813-3.656-.0342625-2.0139528.7651383-3.9525631 2.209-5.357zm3.453 7.257c.4978512.5129074 1.1852857.7976499 1.9.787.725954.0111146 1.4253317-.2728948 1.938-.787.5265794-.4905092.8217849-1.1804113.813-1.9.0087849-.7195888-.2864206-1.4094909-.813-1.9-.510726-.5120986-1.2068086-.7959416-1.93-.787-.7147143-.01065-1.4021488.2740926-1.9.787-.5158497.4964824-.8035606 1.1840932-.795 1.9-.01065.7147142.2740926 1.4021487.787 1.9z"/>
    </g>
    <g transform="translate(1768)">
      <path d="m0 0h52v52h-52z"/>
      <path fill="#fff" d="m19.31 26.51c.9353856-.2370735 1.8951618-.3645963 2.86-.38.9583342.0143008 1.9116171.1418528 2.84.38 1.0137664.2421577 1.9802578.6510579 2.86 1.21.7436042.3705816 1.2401358 1.102113 1.31 1.93v2.48h-14v-2.48c.0639227-.8243033.5527938-1.5557152 1.29-1.93.869913-.5638893 1.8307102-.973243 2.84-1.21zm4.97-3.24c-.5479707.5786166-1.313169.901378-2.11.89-.8161553.0208733-1.6035409-.3020637-2.17-.89-.5817178-.5541343-.9045378-1.326726-.89-2.13-.025029-.808156.2992699-1.5879308.89-2.14.5616728-.5682992 1.3310741-.8825617 2.13-.87 1.6568542 0 3 1.3431458 3 3 .0205819.7994406-.2864966 1.5725559-.85 2.14zm8.02 0c-.5636839.5710251-1.3326228.8924481-2.135.8924481s-1.5713161-.321423-2.135-.8924481c-.5682992-.5616728-.8825617-1.3310741-.87-2.13-.0304124-.7992156.2740503-1.5748704.84-2.14.8557116-.8627584 2.1473566-1.1241063 3.2711624-.6618782s1.8577829 1.5567267 1.8588376 2.7718782c.0233157.8020231-.2756151 1.5799637-.83 2.16zm-2.14 2.86c.9650215.0129103 1.9250886.1404716 2.86.38 1.0087308.2384606 1.9692455.647694 2.84 1.21.7372062.3742848 1.2260773 1.1056967 1.29 1.93v2.48h-6v-2.48c-.0439352-1.4184861-.7946244-2.720932-2-3.47.43-.03.76-.05 1.01-.05z"/>
    </g>
    <g transform="translate(1716)">
      <path fill="#fff" fill-rule="nonzero" d="m29.2792969 25.1289063c-.8138062.8138061-1.7984969 1.2207031-2.9541016 1.2207031s-2.1402954-.406897-2.9541016-1.2207031c-.8138061-.8138062-1.2207031-1.7984969-1.2207031-2.9541016s.406897-2.1402954 1.2207031-2.9541015c.8138062-.8138062 1.7984969-1.2207032 2.9541016-1.2207032s2.1402954.406897 2.9541016 1.2207032c.8138061.8138061 1.2207031 1.7984968 1.2207031 2.9541015s-.406897 2.1402954-1.2207031 2.9541016zm-6.3476563 3.7597656c1.2369854-.2929702 2.368159-.4394531 3.3935547-.4394531 1.0253958 0 2.1565693.1464829 3.3935547.4394531s2.3681589.7731086 3.3935547 1.4404297c1.0253957.667321 1.5380859 1.4241494 1.5380859 2.2705078v2.0996094h-16.6503906v-2.0996094c0-.8463584.5126902-1.6031868 1.5380859-2.2705078 1.0253958-.6673211 2.1565694-1.1474595 3.3935547-1.4404297z"/>
      <path d="m0 0h52v52h-52z"/>
    </g>
    <g transform="translate(1664)">
      <path fill="#fff" fill-rule="nonzero" d="m33 21.6c2.9 3.6 2.6 8.8-.7 12-1.7 1.7-4 2.6-6.3 2.6-5 0-9-4-9-9 0-2.4.9-4.7 2.6-6.4 3.2-3.3 8.4-3.5 12-.6l1.4-1.4c.5.4 1 .9 1.4 1.4zm-12 10.5c2.7 2.7 7.2 2.7 9.9 0 1.3-1.3 2-3.1 2-5 0-3.8-3.1-7-6.9-7h-.1c-3.8 0-7 3.1-7 6.9v.1c0 1.9.8 3.7 2.1 5zm8-17v2h-6v-2zm-4 13v-6h2v6z"/>
      <path d="m0 0h52v52h-52z"/>
    </g>
    <g transform="translate(1612)">
      <path fill="#fff" fill-rule="nonzero" d="m33 17.2c.5 0 1.1.2 1.4.6.4.4.6.9.6 1.4v14c0 1.1-.9 2-2 2h-14c-.5 0-1.1-.2-1.4-.6-.4-.4-.6-.9-.6-1.4v-14c0-1.1.9-2 2-2h1v-2h2v2h8v-2h2v2zm0 16v-11h-14v11zm-2-9v2h-10v-2zm-3 4v2h-7v-2z"/>
      <path d="m0 0h52v52h-52z"/>
    </g>
    <g transform="translate(1560)">
      <path fill="#fff" d="m17 18.1h18v2h-18zm3 5h12v2h-12zm4 5h4v2h-4z"/>
      <path d="m0 0h52v52h-52z"/>
    </g>
    <g transform="translate(1508)">
      <path d="m0 0h52v52h-52z"/>
      <path fill="#fff" fill-rule="nonzero" d="m33.72 15.82c.6054017-.0080971 1.1885186.2281357 1.6175804.6553157.4290618.4271799.6678556 1.0092529.6624196 1.6146843v15.71c.0053903.6036778-.2320384 1.1841983-.6589201 1.6110799-.4268816.4268817-1.0074021.6643104-1.6110799.6589201h-15.73c-.6020139.0126342-1.1819753-.2265999-1.6-.66-.4319007-.4231653-.6705965-1.0054384-.66-1.61v-15.71c-.0129971-.6050103.2260745-1.1882002.66-1.61.4180247-.4334001.9979861-.6726342 1.6-.66zm-11.23 15.77v-7.91h-2.27v7.91zm4.48 0v-11.29h-2.22v11.29zm4.53 0v-4.54h-2.26v4.54z"/>
    </g>
    <g transform="translate(1456)">
      <path fill="#fff" d="m36.2 31.2c.2.1.3.4.3.6 0 .3-.1.5-.3.6l-2 2.1c-.2.2-.4.3-.6.3s-.5-.1-.6-.3l-8.2-7.7c-1 .4-2.1.6-3.2.4s-2.1-.7-2.9-1.5c-.9-.8-1.4-1.9-1.7-3s-.1-2.3.4-3.4l4 3.6 2.5-2.7-3.9-3.6c1-.5 2.2-.7 3.4-.5s2.3.7 3.2 1.5c.8.8 1.4 1.7 1.7 2.8.3 1 .2 2.1-.2 3.1z"/>
      <path d="m0 0h52v52h-52z"/>
    </g>
    <g transform="translate(1404)">
      <path fill="#fff" fill-rule="nonzero" d="m30.1 27.1 5.6 5.6-1.7 1.7-5.6-5.6v-.9l-.3-.3c-1.3 1.1-3 1.8-4.8 1.7-4 0-7.3-3.2-7.3-7.3 0-4 3.3-7.3 7.3-7.3s7.3 3.3 7.3 7.3c0 1.7-.6 3.4-1.7 4.8l.3.3zm-10.4-1.4c2 2 5.2 2 7.2 0s2-5.2 0-7.2-5.2-2-7.2 0c-1.9 2-1.9 5.2 0 7.2z"/>
      <path d="m0 0h52v52h-52z"/>
    </g>
    <g transform="translate(1352)">
      <path fill="#fff" fill-rule="nonzero" d="m24 21.1 9.8 9.8v.8h-2.4l-5.6-5.5-1.8 1.8c.6 1.2.3 2.6-.6 3.5-1.2 1.2-3.2 1.3-4.5 0s-1.3-3.2 0-4.5c.6-.6 1.4-.9 2.2-.9.4 0 .9.1 1.3.3l1.9-1.9-1.9-1.9c-.4.3-.8.4-1.3.4-1.7 0-3.2-1.4-3.2-3.1 0-.8.3-1.7.9-2.3 1.2-1.2 3.2-1.2 4.5 0 .6.6.9 1.4.9 2.2.1.5 0 .9-.2 1.3zm-4-.1c.6.6 1.6.6 2.2 0 .3-.3.5-.7.5-1.1s-.2-.8-.5-1.1c-.6-.6-1.6-.6-2.2 0-.3.3-.5.7-.5 1.1s.2.8.5 1.1zm0 9.5c.6.6 1.6.6 2.2 0 .3-.3.5-.7.5-1.1s-.2-.8-.5-1.1c-.6-.6-1.6-.6-2.2 0-.3.3-.5.7-.5 1.1s.2.8.5 1.1zm5.5-5.9c0 .3.1.4.4.4s.4-.1.4-.4-.1-.4-.4-.4-.4.1-.4.4zm5.9-7.1h2.4v.8l-5.6 5.6-1.6-1.6z"/>
      <path d="m0 0h52v52h-52z"/>
    </g>
    <g transform="translate(1300)">
      <path d="m0 0h52v52h-52z"/>
      <path fill="#fff" fill-rule="nonzero" d="m34.91 19.85c.521716-.0022324 1.0211492.2112934 1.38.59.3805106.3782355.593099.8934921.59 1.43v8c.003099.5365079-.2094894 1.0517645-.59 1.43-.3598785.3760287-.8595447.5860333-1.38.58h-18c-.5365811.0139305-1.0547256-.1962261-1.43-.58-.3805106-.3782355-.593099-.8934921-.59-1.43v-8c0-1.1045695.8954305-2 2-2zm0 10v-8h-2v4h-2v-4h-2v4h-2v-4h-2v4h-2v-4h-2v4h-2v-4h-2v8z"/>
    </g>
    <g transform="translate(1248)">
      <path fill="#fff" fill-rule="nonzero" d="m34.25 21.5351562 4.4824219 4.4824219h-3.375c0 2.4961062-.8788975 4.6230381-2.6367188 6.3808594s-3.8671752 2.6367187-6.328125 2.6367187c-1.7226648 0-3.3222582-.4746046-4.7988281-1.4238281l1.6347656-1.6347656c.9492235.5273464 2.0039005.7910156 3.1640625.7910156 1.8632906 0 3.454095-.6591731 4.772461-1.9775391 1.3183659-1.3183659 1.977539-2.9091703 1.977539-4.7724609h-3.375zm-14.6074219 4.4824219h3.375l-4.5351562 4.4824219-4.4824219-4.4824219h3.375c0-2.4961062.8788975-4.6230381 2.6367187-6.3808594 1.7578213-1.7578213 3.8847532-2.6367187 6.3808594-2.6367187 1.7226649 0 3.3222583.4746046 4.7988281 1.4238281l-1.6875 1.6347656c-.9492234-.5273464-1.9863225-.7910156-3.1113281-.7910156-1.8632905 0-3.4540949.6591731-4.7724609 1.9775391-1.318366 1.3183659-1.9775391 2.9091703-1.9775391 4.7724609z"/>
      <path d="m0 0h52v52h-52z"/>
    </g>
    <g transform="translate(1196)">
      <path d="m0 0h52v52h-52z"/>
      <path fill="#fff" d="m34.17 24.62c.6073517-.0098182 1.1924261.2285455 1.62.66.6515081.6532847.8450801 1.6348237.4903784 2.4865458-.3547017.851722-1.1877525 1.4057215-2.1103784 1.4034542h-1.37v3.7c.0011809.4764395-.1941777.9322762-.54 1.26-.3424273.3545542-.8171918.5502586-1.31.54h-3.48v-1.38c.011667-.6567507-.2532368-1.2881654-.73-1.74-.4684724-.4608093-1.1030085-.7131816-1.76-.7-.6517949-.0170475-1.2816002.2363225-1.74.7-.463348.4593759-.719693 1.0876017-.71 1.74v1.38h-3.48c-.4928082.0102586-.9675727-.1854458-1.31-.54-.3458223-.3277238-.5411809-.7835605-.54-1.26v-3.49h1.38c1.375189 0 2.49-1.114811 2.49-2.49 0-.6603891-.2623385-1.2937303-.7293041-1.7606959s-1.1003068-.7293041-1.7606959-.7293041h-1.38v-3.48c-.0039497-.4799093.1916344-.939894.54-1.27.3461605-.3478571.8193421-.539297 1.31-.53h3.65v-1.38c-.0087603-.6120553.2333351-1.2010336.67-1.63.4190657-.4533604 1.0128001-.7046959 1.63-.69 1.272336.0213883 2.2986117 1.047664 2.32 2.32v1.38h3.68c.4906579-.009297.9638395.1821429 1.31.53.3483656.330106.5439497.7900907.54 1.27v3.7z"/>
    </g>
    <g transform="translate(1144)">
      <path fill="#fff" d="m31.8 17.5h3v8h-8v9c0 .3-.1.5-.3.7s-.4.3-.7.3h-2c-.3 0-.5-.1-.7-.3s-.3-.4-.3-.7v-11h10v-4h-1v1c0 .3-.1.5-.3.7s-.5.3-.7.3h-12c-.3 0-.5-.1-.7-.3s-.3-.5-.3-.7v-4c0-.3.1-.5.3-.7s.4-.3.7-.3h12c.3 0 .5.1.7.3s.3.4.3.7z"/>
      <path d="m0 0h52v52h-52z"/>
    </g>
    <g transform="translate(1092)">
      <path d="m0 0h52v52h-52z"/>
      <path fill="#fff" d="m31.3 24.84h1.88c.0190095 1.7869517-.6631012 3.5101787-1.9 4.8-1.2004505 1.3319291-2.8266007 2.2051011-4.6 2.47v3.55h-2.18v-3.55c-1.7774532-.2661852-3.4052568-1.1473224-4.6-2.49-1.2284311-1.2871714-1.9095572-3.0007412-1.9000992-4.78h1.8300992c-.0318615 1.4933137.5976747 2.9244105 1.72 3.91 1.0832516 1.017187 2.514033 1.5823457 4 1.58 1.488494.0158462 2.9241295-.5512298 4-1.58 1.1323345-.9807909 1.7729608-2.4121332 1.75-3.91zm-3.42 2.29c-.5884978.6408783-1.4199201 1.0039448-2.29 1-1.7959435-.0054004-3.2535817-1.4541234-3.27-3.25v-6.5c-.0058506-.8762641.3570637-1.714596 1-2.31.6118345-.6118688 1.4447787-.9508158 2.31-.94.8617829-.0054366 1.6895566.3358771 2.2970575.9471397.607501.6112626.9436986 1.4411273.9329425 2.3028603v6.5c-.0146585.850437-.3672892 1.660048-.98 2.25z"/>
    </g>
    <g transform="translate(1040)">
      <path d="m0 0h52v52h-52z"/>
      <path fill="#fff" fill-rule="nonzero" d="m33.39 16.88c.143179-.0202931.2875663.0279244.3898209.1301791.1022547.1022546.1504722.2466419.1301791.3898209v15.09c.0184961.2293013-.142765.4341465-.37.47l-5.63 1.92-6-2.11-5.34 2.06-.14.05c-.143179.0202931-.2875663-.0279244-.3898209-.1301791-.1022547-.1022546-.1504722-.2466419-.1301791-.3898209v-15.09c-.0179944-.2326425.1487477-.4388761.38-.47l5.62-1.92 6 2.11 5.34-2.06zm-5.48 16v-11.88l-6-2.1v11.85z"/>
    </g>
    <g transform="translate(988)">
      <path d="m0 0h52v52h-52z"/>
      <path fill="#fff" fill-rule="nonzero" d="m17 17.55h19.18v3.87h-19.18zm0 9.62v-3.87h19.18v3.87zm0 5.75v-3.87h19.18v3.87zm3.82-12.49v-1.89h-1.89v1.89zm-1.89 3.86v1.89h1.89v-1.89zm0 5.75v1.89h1.89v-1.93z"/>
    </g>
    <g transform="translate(936)">
      <path fill="#fff" d="m16.4 16.1h8.4v10.4h-8.4zm0 12.5h8.4v6.3h-8.4zm10.4-12.5h8.3v6.3h-8.3zm0 8.3h8.3v10.4h-8.3z"/>
      <path d="m0 0h52v52h-52z"/>
    </g>
    <g transform="translate(884)">
      <path d="m0 0h52v52h-52z"/>
      <path fill="#fff" d="m26 30.64-7.67-5.96-1.7-1.32 9.37-7.27 9.38 7.27-1.71 1.32zm0 2.68 7.67-6 1.71 1.32-9.38 7.27-9.37-7.27 1.7-1.32z"/>
    </g>
    <g transform="translate(832)">
      <path d="m0 0h52v52h-52z"/>
      <path fill="#fff" fill-rule="nonzero" d="m16 21.66h5v-5h15v15h-5v5h-15zm2.52 5v7.5h10v-7.5zm12.48-5v7.5h2.52v-10h-10v2.52z"/>
    </g>
    <g transform="translate(780)">
      <path fill="#fff" d="m15.7 23.4h2.9v1.9h-2.9zm2.46154 7.64744 1.76775-1.76775 1.34349 1.34349-1.76775 1.76775zm11.03846-11.64744c.9.5 1.6 1.2 2.1 2.1s.8 1.9.8 2.9c0 3.2-2.6 5.8-5.8 5.8s-5.7-2.6-5.8-5.7c0-1 .3-2 .8-2.9s1.2-1.6 2.1-2.1v-4.6h5.8zm-3.9 12.6h1.9v2.8h-1.9zm6-1.3 1.3-1.3 1.8 1.7-1.4 1.3zm2.6-7.3h2.9v1.9h-2.9z"/>
      <path d="m0 0h52v52h-52z"/>
    </g>
    <g transform="translate(728)">
      <path d="m0 0h52v52h-52z"/>
      <path fill="#fff" d="m31.77 29.53h4.48v5.64h-5.64v-3.43l-4.48-4.74-4.49 4.75v3.43h-5.64v-5.65h4.48l4.52-4.53v-3.54c-.6590773-.2387263-1.2306972-.6709268-1.64-1.24-.957511-1.3348274-.8094712-3.1662912.35-4.33.9679582-.9679532 2.424174-1.2564931 3.6880942-.7307724s2.0859448 1.7618823 2.0819058 3.1307724c.0043319.6945491-.2167288 1.3717669-.63 1.93-.4093028.5690732-.9809227 1.0012737-1.64 1.24v3.54z"/>
    </g>
    <g transform="translate(676)">
      <path d="m0 0h52v52h-52z"/>
      <path fill="#fff" fill-rule="nonzero" d="m33.5 15.83c.4906579-.009297.9638395.1821429 1.31.53.3483656.330106.5439497.7900907.54 1.27v14.7c.0011809.4764395-.1941777.9322762-.54 1.26-.3424273.3545542-.8171918.5502586-1.31.54h-14.65c-.4928082.0102586-.9675727-.1854458-1.31-.54-.3458223-.3277238-.5411809-.7835605-.54-1.26v-14.7c-.0039497-.4799093.1916344-.939894.54-1.27.3461605-.3478571.8193421-.539297 1.31-.53zm-11 5.5v-3.7h-3.65v3.7zm0 5.5v-3.7h-3.65v3.7zm0 5.5v-3.7h-3.65v3.7zm5.5-11v-3.7h-3.65v3.7zm0 5.5v-3.7h-3.65v3.7zm0 5.5v-3.7h-3.65v3.7zm5.5-11v-3.7h-3.65v3.7zm0 5.5v-3.7h-3.65v3.7zm0 5.5v-3.7h-3.65v3.7z"/>
    </g>
    <g transform="translate(624)">
      <path fill="#fff" d="m16.9 25.8h4.5v9h-4.5zm6.8-9.1h4.5v18h-4.5zm6.7 5.7h4.5v12.4h-4.5z"/>
      <path d="m0 0h52v52h-52z"/>
    </g>
    <g transform="translate(572)">
      <path fill="#fff" fill-rule="nonzero" d="m18.2695312 18.3222657c2.2148549-2.2148549 4.8779142-3.3222657 7.9892579-3.3222657 3.1113436 0 5.765614 1.0986219 7.9628906 3.2958985s3.2958984 4.8427579 3.2958984 7.9365234-1.0986218 5.7392468-3.2958984 7.9365234-4.851547 3.2958985-7.9628906 3.2958985c-3.1113437 0-5.7656141-1.0986219-7.9628907-3.2958985s-3.2958984-4.8427579-3.2958984-7.9365234 1.0898329-5.7304579 3.2695312-7.9101562zm6.8554688 16.8222656v-2.1621094c-.6328157 0-1.1689431-.2197244-1.6083984-.6591797-.4394554-.4394553-.6591797-.9755828-.6591797-1.6083984v-1.1074219l-5.3789063-5.3789062c-.1406257.7031285-.2109375 1.3710905-.2109375 2.0039062 0 2.2851677.7470629 4.2714759 2.241211 5.9589844 1.4941481 1.6875084 3.3661996 2.6718736 5.6162109 2.953125zm7.7519531-2.8476563c1.5820392-1.7226648 2.3730469-3.744129 2.3730469-6.0644531 0-1.8632906-.5185495-3.5507737-1.5556641-5.0625-1.0371145-1.5117263-2.3994056-2.6015592-4.086914-3.2695312v.4746093c0 .5976593-.2197244 1.1162088-.6591797 1.5556641s-.9580048.6591797-1.5556641.6591797h-2.2675781v2.2675781c0 .3164078-.1142567.5800771-.3427734.7910156-.2285168.2109386-.4833971.3164063-.7646485.3164063h-2.2675781v2.2675781h6.75c.3164078 0 .5800771.1142567.7910156.3427734.2109386.2285168.3164063.4833971.3164063.7646485v3.375h1.1601562c.49219 0 .9316387.1494125 1.3183594.4482422.3867207.2988296.6503899.6767555.7910156 1.133789z"/>
      <path d="m0 0h52v52h-52z"/>
    </g>
    <g transform="translate(520)">
      <path fill="#fff" fill-rule="nonzero" d="m34.0003753 20.0163753c.5371417-.010546 1.0547225.2015535 1.43.586.3844466.3752776.5965461.8928584.586 1.43v9.984c.0105461.5371417-.2015534 1.0547225-.586 1.43-.3752775.3844466-.8928583.5965461-1.43.586h-15.984c-.5371416.0105461-1.0547224-.2015534-1.43-.586-.3844465-.3752775-.596546-.8928583-.586-1.43v-12c-.010546-.5371416.2015535-1.0547224.586-1.43.3752776-.3844465.8928584-.596546 1.43-.586h6l1.968 2.016zm0 12v-9.984h-15.984v9.984z"/>
      <path d="m0 0h52v52h-52z"/>
    </g>
    <g transform="translate(468)">
      <path d="m0 0h52v52h-52z"/>
      <path fill="#fff" fill-rule="nonzero" d="m17.81 15.51h8.33c.538246-.0709638 1.0810168.0929602 1.49.45.4453454.3443262.7161172.8675743.74 1.43v5.61l1.83-3c1 1.59 2.44 3.88 4.26 6.88s3 4.86 3.41 5.61h-12.24c-.7346098.8395026-1.6329766 1.5200835-2.64 2-1.4153346.6113695-3.0057214.6825277-4.47.2-3.1030883-.947611-5.0741421-3.9907154-4.67-7.21.1509113-1.597358.8926603-3.0808562 2.08-4.16v-5.38c-.0704685-.5908472.0829442-1.1866591.43-1.67.3188532-.4876223.8675819-.7752319 1.45-.76zm2.64 8.49c-.9465112.0018491-1.8626322.3343409-2.59.94-.7445768.6353096-1.2897663 1.472193-1.57 2.41-.2680201 1.1571922-.0078747 2.3736468.71 3.32.6257029 1.0070925 1.6659391 1.6847111 2.84 1.85 1.1273599.169718 2.2741314-.142378 3.16-.86.9628252-.6837547 1.5596852-1.7706294 1.62-2.95.1265585-1.1900123-.2532625-2.3783779-1.0465494-3.2743926-.7932869-.8960146-1.9268716-1.4170354-3.1234506-1.4356074zm-2-5.79v3.65c1.3560112-.434826 2.8170933-.4137527 4.16.06 1.3532516.4210385 2.5191833 1.2972538 3.3 2.48v-6.2zm11.75 6.59-3.15 5.2h6.35z"/>
    </g>
    <g transform="translate(416)">
      <path fill="#fff" d="m29.2 19.9h6.1v10.8h-7.6l-.5-2.1h-6v7.5h-2.2v-18.4h9.8z"/>
      <path d="m0 0h52v52h-52z"/>
    </g>
    <g transform="translate(364)">
      <path fill="#fff" fill-rule="nonzero" d="m28 14.7c1.9 1.5 3.4 3.5 4.5 5.7s1.7 4.7 1.7 7.1c0 4.2-3.4 7.6-7.7 7.6-4.2 0-7.6-3.4-7.7-7.6 0-3.1 1.1-6.2 3.1-8.5v.4c0 .9.3 1.8 1 2.5s1.6 1 2.5 1 1.7-.3 2.3-1 .9-1.6.9-2.5c0-.7-.1-1.4-.2-2.1-.1-.6-.2-1.2-.3-1.8zm-1.7 17.6c2.5 0 4.6-2 4.6-4.6 0-1.3-.2-2.6-.6-3.9-1.1 1.4-2.7 2.2-4.4 2.5-.8.1-1.5.5-2 1.1-.5.5-.7 1.2-.7 1.9 0 .8.3 1.6.9 2.1.6.6 1.4.9 2.2.9z"/>
      <path d="m0 0h52v52h-52z"/>
    </g>
    <g transform="translate(312)">
      <path fill="#fff" fill-rule="nonzero" d="m18.5 19.1c2.1-1.5 4.7-2.3 7.3-2.3s5.1.8 7.2 2.3c2.1 1.4 3.7 3.5 4.6 5.9-.9 2.4-2.5 4.4-4.6 5.9-4.4 3-10.1 3-14.5 0-2.1-1.4-3.7-3.5-4.7-5.9 1-2.5 2.6-4.5 4.7-5.9zm3.5 9.7c1 1 2.4 1.6 3.8 1.6s2.8-.6 3.8-1.6c2.1-2.1 2.1-5.5 0-7.7-1-1-2.4-1.6-3.8-1.6-3 0-5.4 2.4-5.4 5.4 0 1.5.6 2.9 1.6 3.9zm1.5-6.2c.6-.6 1.4-1 2.3-.9.9 0 1.7.3 2.3.9 1.3 1.3 1.3 3.3 0 4.6-.6.6-1.4 1-2.3.9-1.8 0-3.2-1.4-3.2-3.2 0 0 0 0 0-.1 0-.7.3-1.6.9-2.2z"/>
      <path d="m0 0h52v52h-52z"/>
    </g>
    <g transform="translate(260)">
      <path d="m0 0h52v52h-52z"/>
      <path fill="#fff" fill-rule="nonzero" d="m34.25 18.08c.5807148-.0053587 1.1393464.2222746 1.5509299.6319787s.641771.967288.6390701 1.5480213v13c0 1.2095036-.9804964 2.19-2.19 2.19h-17.31c-1.2095036 0-2.19-.9804964-2.19-2.19v-13c-.0027009-.5807333.2274866-1.1383172.6390701-1.5480213s.9702151-.6373374 1.5509299-.6319787zm0 4.37v-2.19l-8.68 5.44-8.63-5.44v2.19l8.63 5.38z"/>
    </g>
    <g transform="translate(208)">
      <path fill="#fff" fill-rule="nonzero" d="m33.9 22.8c2.9.2 5.2 2.6 5.2 5.6 0 3.1-2.5 5.6-5.6 5.6h-14.6c-3.7 0-6.7-3-6.8-6.8 0-1.7.6-3.3 1.7-4.5s2.6-2 4.3-2.2c.7-1.4 1.8-2.5 3.1-3.3 3.1-1.9 7-1.6 9.8.7 1.5 1.3 2.6 3 2.9 4.9zm-.4 9c.9 0 1.8-.3 2.4-1 1.3-1.3 1.3-3.4 0-4.7-.6-.7-1.5-1-2.4-1h-1.7v-.6c0-3.4-2.8-6.1-6.2-6.2-2 0-3.8.9-5 2.5 1.4.4 2.7 1.3 3.6 2.4.9 1.2 1.4 2.6 1.4 4.1h-2.2c0-1.2-.4-2.4-1.3-3.3-1.8-1.7-4.6-1.7-6.4 0s-1.7 4.6 0 6.4c.8.9 2 1.3 3.2 1.3z"/>
      <path d="m0 0h52v52h-52z"/>
    </g>
    <g transform="translate(156)">
      <path d="m0 0h52v52h-52z"/>
      <path fill="#fff" d="m21.59 30.61 11.53-11.52 1.47 1.52-13 13-6.04-6.04 1.52-1.53z"/>
    </g>
    <g transform="translate(104)">
      <path d="m0 0h52v52h-52z"/>
      <path fill="#fff" d="M24.84 34c2.4184981.0461408 4.7126694-1.0693396 6.17-3l2.9 1.74c-2.1039435 2.9058144-5.4825664 4.6156137-9.07 4.59-6.1826839.0000613-11.2024725-4.9973774-11.23-11.18-.0458892-2.8085188 1.0052381-5.5242299 2.93-7.57 1.8535939-2.0650458 4.4250078-3.3453882 7.19-3.58v3.37c-3.8557627.5773764-6.713768 3.8812815-6.73 7.78-.0000035 4.331533 3.5084705 7.8444821 7.84 7.85zM26 15c5.7384642.564794 10.1166502 5.383824 10.13 11.15-.0041979 1.583588-.3450685 3.148184-1 4.59l-3-1.74c.3786927-.9026699.5757811-1.8711213.58-2.85.0286076-1.8949178-.6527131-3.7319867-1.91-5.15-1.2226102-1.4417042-2.9294214-2.3875621-4.8-2.66z"/>
    </g>
    <g transform="translate(52)">
      <path d="m0 0h52v52h-52z"/>
      <path fill="#fff" fill-rule="nonzero" d="m26.72 15.12 8.68 4.59v1.85h-17.4v-1.85zm-8.72 19.25v-2.75h17.4v2.75zm1.85-11h2.75v6.44h-2.75zm5.5 0h2.75v6.44h-2.75zm5.5 0h2.75v6.44h-2.75z"/>
    </g>
    <path fill="#fff" d="M20.5 23.3h2.8v1.9h-2.8v2.9h-2v-2.9h-2.9v-1.9h2.9v-2.9h2zM25.9 27.6c1-.3 2.1-.4 3.1-.4 1.1 0 2.1.1 3.1.4 1.1.3 2.2.7 3.1 1.3.8.4 1.4 1.2 1.4 2.1v1.9h-15.2v-1.9c.1-.9.6-1.7 1.4-2.1 1-.6 2-1.1 3.1-1.3zM31.8 24.1c-1.5 1.5-3.9 1.5-5.4 0-1.5-1.5-1.5-3.9 0-5.4s3.9-1.5 5.4 0c.7.7 1.1 1.7 1.1 2.7s-.4 2-1.1 2.7z"/>
    <path d="m0 0h52v52h-52z"/>
  </g>
</svg>
