<svg xmlns="http://www.w3.org/2000/svg" width="1820" height="52" viewBox="0 0 1820 52">
  <g fill="none" fill-rule="evenodd">
    <g transform="translate(1768)">
      <rect width="52" height="52"/>
      <path fill="#101F30" d="M19.31 26.51C20.2453856 26.2729265 21.2051618 26.1454037 22.17 26.13 23.1283342 26.1443008 24.0816171 26.2718528 25.01 26.51 26.0237664 26.7521577 26.9902578 27.1610579 27.87 27.72 28.6136042 28.0905816 29.1101358 28.822113 29.18 29.65L29.18 32.13 15.18 32.13 15.18 29.65C15.2439227 28.8256967 15.7327938 28.0942848 16.47 27.72 17.339913 27.1561107 18.3007102 26.746757 19.31 26.51zM24.28 23.27C23.7320293 23.8486166 22.966831 24.171378 22.17 24.16 21.3538447 24.1808733 20.5664591 23.8579363 20 23.27 19.4182822 22.7158657 19.0954622 21.943274 19.11 21.14 19.084971 20.331844 19.4092699 19.5520692 20 19 20.5616728 18.4317008 21.3310741 18.1174383 22.13 18.13 23.7868542 18.13 25.13 19.4731458 25.13 21.13 25.1505819 21.9294406 24.8435034 22.7025559 24.28 23.27zM32.3 23.27C31.7363161 23.8410251 30.9673772 24.1624481 30.165 24.1624481 29.3626228 24.1624481 28.5936839 23.8410251 28.03 23.27 27.4617008 22.7083272 27.1474383 21.9389259 27.16 21.14 27.1295876 20.3407844 27.4340503 19.5651296 28 19 28.8557116 18.1372416 30.1473566 17.8758937 31.2711624 18.3381218 32.3949682 18.8003499 33.1289453 19.8948485 33.13 21.11 33.1533157 21.9120231 32.8543849 22.6899637 32.3 23.27zM30.16 26.13C31.1250215 26.1429103 32.0850886 26.2704716 33.02 26.51 34.0287308 26.7484606 34.9892455 27.157694 35.86 27.72 36.5972062 28.0942848 37.0860773 28.8256967 37.15 29.65L37.15 32.13 31.15 32.13 31.15 29.65C31.1060648 28.2315139 30.3553756 26.929068 29.15 26.18 29.58 26.15 29.91 26.13 30.16 26.13z"/>
    </g>
    <g transform="translate(1716)">
      <path fill="#101F30" fill-rule="nonzero" d="M29.2792969,25.1289063 C28.4654907,25.9427124 27.4808,26.3496094 26.3251953,26.3496094 C25.1695906,26.3496094 24.1848999,25.9427124 23.3710937,25.1289063 C22.5572876,24.3151001 22.1503906,23.3304094 22.1503906,22.1748047 C22.1503906,21.0192 22.5572876,20.0345093 23.3710937,19.2207032 C24.1848999,18.406897 25.1695906,18 26.3251953,18 C27.4808,18 28.4654907,18.406897 29.2792969,19.2207032 C30.093103,20.0345093 30.5,21.0192 30.5,22.1748047 C30.5,23.3304094 30.093103,24.3151001 29.2792969,25.1289063 Z M22.9316406,28.8886719 C24.168626,28.5957017 25.2997996,28.4492188 26.3251953,28.4492188 C27.3505911,28.4492188 28.4817646,28.5957017 29.71875,28.8886719 C30.9557354,29.1816421 32.0869089,29.6617805 33.1123047,30.3291016 C34.1377004,30.9964226 34.6503906,31.753251 34.6503906,32.5996094 L34.6503906,34.6992188 L18,34.6992188 L18,32.5996094 C18,31.753251 18.5126902,30.9964226 19.5380859,30.3291016 C20.5634817,29.6617805 21.6946553,29.1816421 22.9316406,28.8886719 Z"/>
      <rect width="52" height="52"/>
    </g>
    <g transform="translate(1664)">
      <path fill="#101F30" fill-rule="nonzero" d="M33,21.6 C35.9,25.2 35.6,30.4 32.3,33.6 C30.6,35.3 28.3,36.2 26,36.2 C21,36.2 17,32.2 17,27.2 C17,24.8 17.9,22.5 19.6,20.8 C22.8,17.5 28,17.3 31.6,20.2 L33,18.8 C33.5,19.2 34,19.7 34.4,20.2 L33,21.6 Z M21,32.1 C23.7,34.8 28.2,34.8 30.9,32.1 C30.9,32.1 30.9,32.1 30.9,32.1 C32.2,30.8 32.9,29 32.9,27.1 C32.9,23.3 29.8,20.1 26,20.1 C26,20.1 25.9,20.1 25.9,20.1 C22.1,20.1 18.9,23.2 18.9,27 C18.9,27 18.9,27.1 18.9,27.1 C18.9,29 19.7,30.8 21,32.1 Z M29,15.1 L29,17.1 L23,17.1 L23,15.1 L29,15.1 Z M25,28.1 L25,22.1 L27,22.1 L27,28.1 L25,28.1 Z"/>
      <rect width="52" height="52"/>
    </g>
    <g transform="translate(1612)">
      <path fill="#101F30" fill-rule="nonzero" d="M33,17.2 C33.5,17.2 34.1,17.4 34.4,17.8 C34.8,18.2 35,18.7 35,19.2 L35,33.2 C35,34.3 34.1,35.2 33,35.2 L19,35.2 C18.5,35.2 17.9,35 17.6,34.6 C17.2,34.2 17,33.7 17,33.2 L17,19.2 C17,18.1 17.9,17.2 19,17.2 L20,17.2 L20,15.2 L22,15.2 L22,17.2 L30,17.2 L30,15.2 L32,15.2 L32,17.2 L33,17.2 Z M33,33.2 L33,22.2 L19,22.2 L19,33.2 L33,33.2 Z M31,24.2 L31,26.2 L21,26.2 L21,24.2 L31,24.2 Z M28,28.2 L28,30.2 L21,30.2 L21,28.2 L28,28.2 Z"/>
      <rect width="52" height="52"/>
    </g>
    <g transform="translate(1560)">
      <rect width="18" height="2" x="17" y="18.1" fill="#101F30"/>
      <rect width="12" height="2" x="20" y="23.1" fill="#101F30"/>
      <rect width="4" height="2" x="24" y="28.1" fill="#101F30"/>
      <rect width="52" height="52"/>
    </g>
    <g transform="translate(1508)">
      <rect width="52" height="52"/>
      <path fill="#101F30" fill-rule="nonzero" d="M33.72,15.82 C34.3254017,15.8119029 34.9085186,16.0481357 35.3375804,16.4753157 C35.7666422,16.9024956 36.005436,17.4845686 36,18.09 L36,33.8 C36.0053903,34.4036778 35.7679616,34.9841983 35.3410799,35.4110799 C34.9141983,35.8379616 34.3336778,36.0753903 33.73,36.07 L18,36.07 C17.3979861,36.0826342 16.8180247,35.8434001 16.4,35.41 C15.9680993,34.9868347 15.7294035,34.4045616 15.74,33.8 L15.74,18.09 C15.7270029,17.4849897 15.9660745,16.9017998 16.4,16.48 C16.8180247,16.0465999 17.3979861,15.8073658 18,15.82 L33.72,15.82 Z M22.49,31.59 L22.49,23.68 L20.22,23.68 L20.22,31.59 L22.49,31.59 Z M26.97,31.59 L26.97,20.3 L24.75,20.3 L24.75,31.59 L26.97,31.59 Z M31.5,31.59 L31.5,27.05 L29.24,27.05 L29.24,31.59 L31.5,31.59 Z"/>
    </g>
    <g transform="translate(1456)">
      <path fill="#101F30" d="M36.2,31.2 C36.4,31.3 36.5,31.6 36.5,31.8 C36.5,32.1 36.4,32.3 36.2,32.4 L34.2,34.5 C34,34.7 33.8,34.8 33.6,34.8 C33.4,34.8 33.1,34.7 33,34.5 L24.8,26.8 C23.8,27.2 22.7,27.4 21.6,27.2 C20.5,27 19.5,26.5 18.7,25.7 C17.8,24.9 17.3,23.8 17,22.7 C16.7,21.6 16.9,20.4 17.4,19.3 L21.4,22.9 L23.9,20.2 L20,16.6 C21,16.1 22.2,15.9 23.4,16.1 C24.6,16.3 25.7,16.8 26.6,17.6 C27.4,18.4 28,19.3 28.3,20.4 C28.6,21.4 28.5,22.5 28.1,23.5 L36.2,31.2 Z"/>
      <rect width="52" height="52"/>
    </g>
    <g transform="translate(1404)">
      <path fill="#101F30" fill-rule="nonzero" d="M30.1,27.1 L35.7,32.7 L34,34.4 L28.4,28.8 L28.4,27.9 L28.1,27.6 C26.8,28.7 25.1,29.4 23.3,29.3 C19.3,29.3 16,26.1 16,22 C16,22 16,22 16,22 C16,18 19.3,14.7 23.3,14.7 C27.3,14.7 30.6,18 30.6,22 C30.6,22 30.6,22 30.6,22 C30.6,23.7 30,25.4 28.9,26.8 L29.2,27.1 L30.1,27.1 Z M19.7,25.7 C21.7,27.7 24.9,27.7 26.9,25.7 C28.9,23.7 28.9,20.5 26.9,18.5 C24.9,16.5 21.7,16.5 19.7,18.5 C17.8,20.5 17.8,23.7 19.7,25.7 Z"/>
      <rect width="52" height="52"/>
    </g>
    <g transform="translate(1352)">
      <path fill="#101F30" fill-rule="nonzero" d="M24,21.1 L33.8,30.9 L33.8,31.7 L31.4,31.7 L25.8,26.2 L24,28 C24.6,29.2 24.3,30.6 23.4,31.5 C22.2,32.7 20.2,32.8 18.9,31.5 C17.6,30.2 17.6,28.3 18.9,27 C19.5,26.4 20.3,26.1 21.1,26.1 C21.5,26.1 22,26.2 22.4,26.4 L24.3,24.5 L22.4,22.6 C22,22.9 21.6,23 21.1,23 C19.4,23 17.9,21.6 17.9,19.9 C17.9,19.1 18.2,18.2 18.8,17.6 C20,16.4 22,16.4 23.3,17.6 C23.9,18.2 24.2,19 24.2,19.8 C24.3,20.3 24.2,20.7 24,21.1 Z M20,21 C20.6,21.6 21.6,21.6 22.2,21 C22.5,20.7 22.7,20.3 22.7,19.9 C22.7,19.5 22.5,19.1 22.2,18.8 C21.6,18.2 20.6,18.2 20,18.8 C19.7,19.1 19.5,19.5 19.5,19.9 C19.5,20.3 19.7,20.7 20,21 Z M20,30.5 C20.6,31.1 21.6,31.1 22.2,30.5 C22.5,30.2 22.7,29.8 22.7,29.4 C22.7,29 22.5,28.6 22.2,28.3 C21.6,27.7 20.6,27.7 20,28.3 C19.7,28.6 19.5,29 19.5,29.4 C19.5,29.8 19.7,30.2 20,30.5 Z M25.5,24.6 C25.5,24.9 25.6,25 25.9,25 C26.2,25 26.3,24.9 26.3,24.6 C26.3,24.3 26.2,24.2 25.9,24.2 C25.6,24.2 25.5,24.3 25.5,24.6 Z M31.4,17.5 L33.8,17.5 L33.8,18.3 L28.2,23.9 L26.6,22.3 L31.4,17.5 Z"/>
      <rect width="52" height="52"/>
    </g>
    <g transform="translate(1300)">
      <rect width="52" height="52"/>
      <path fill="#101F30" fill-rule="nonzero" d="M34.91,19.85 C35.431716,19.8477676 35.9311492,20.0612934 36.29,20.44 C36.6705106,20.8182355 36.883099,21.3334921 36.88,21.87 L36.88,29.87 C36.883099,30.4065079 36.6705106,30.9217645 36.29,31.3 C35.9301215,31.6760287 35.4304553,31.8860333 34.91,31.88 L16.91,31.88 C16.3734189,31.8939305 15.8552744,31.6837739 15.48,31.3 C15.0994894,30.9217645 14.886901,30.4065079 14.89,29.87 L14.89,21.87 C14.89,20.7654305 15.7854305,19.87 16.89,19.87 L34.91,19.85 Z M34.91,29.85 L34.91,21.85 L32.91,21.85 L32.91,25.85 L30.91,25.85 L30.91,21.85 L28.91,21.85 L28.91,25.85 L26.91,25.85 L26.91,21.85 L24.91,21.85 L24.91,25.85 L22.91,25.85 L22.91,21.85 L20.91,21.85 L20.91,25.85 L18.91,25.85 L18.91,21.85 L16.91,21.85 L16.91,29.85 L34.91,29.85 Z"/>
    </g>
    <g transform="translate(1248)">
      <path fill="#101F30" fill-rule="nonzero" d="M34.25,21.5351562 L38.7324219,26.0175781 L35.3574219,26.0175781 C35.3574219,28.5136843 34.4785244,30.6406162 32.7207031,32.3984375 C30.9628818,34.1562588 28.8535279,35.0351562 26.3925781,35.0351562 C24.6699133,35.0351562 23.0703199,34.5605516 21.59375,33.6113281 L23.2285156,31.9765625 C24.1777391,32.5039089 25.2324161,32.7675781 26.3925781,32.7675781 C28.2558687,32.7675781 29.8466731,32.108405 31.1650391,30.790039 C32.483405,29.4716731 33.1425781,27.8808687 33.1425781,26.0175781 L29.7675781,26.0175781 L34.25,21.5351562 Z M19.6425781,26.0175781 L23.0175781,26.0175781 L18.4824219,30.5 L14,26.0175781 L17.375,26.0175781 C17.375,23.5214719 18.2538975,21.39454 20.0117187,19.6367187 C21.76954,17.8788974 23.8964719,17 26.3925781,17 C28.115243,17 29.7148364,17.4746046 31.1914062,18.4238281 L29.5039062,20.0585937 C28.5546828,19.5312473 27.5175837,19.2675781 26.3925781,19.2675781 C24.5292876,19.2675781 22.9384832,19.9267512 21.6201172,21.2451172 C20.3017512,22.5634831 19.6425781,24.1542875 19.6425781,26.0175781 Z"/>
      <rect width="52" height="52"/>
    </g>
    <g transform="translate(1196)">
      <rect width="52" height="52"/>
      <path fill="#101F30" d="M34.17,24.62 C34.7773517,24.6101818 35.3624261,24.8485455 35.79,25.28 C36.4415081,25.9332847 36.6350801,26.9148237 36.2803784,27.7665458 C35.9256767,28.6182678 35.0926259,29.1722673 34.17,29.17 L32.8,29.17 L32.8,32.87 C32.8011809,33.3464395 32.6058223,33.8022762 32.26,34.13 C31.9175727,34.4845542 31.4428082,34.6802586 30.95,34.67 L27.47,34.67 L27.47,33.29 C27.481667,32.6332493 27.2167632,32.0018346 26.74,31.55 C26.2715276,31.0891907 25.6369915,30.8368184 24.98,30.85 C24.3282051,30.8329525 23.6983998,31.0863225 23.24,31.55 C22.776652,32.0093759 22.520307,32.6376017 22.53,33.29 L22.53,34.67 L19.05,34.67 C18.5571918,34.6802586 18.0824273,34.4845542 17.74,34.13 C17.3941777,33.8022762 17.1988191,33.3464395 17.2,32.87 L17.2,29.38 L18.58,29.38 C19.955189,29.38 21.07,28.265189 21.07,26.89 C21.07,26.2296109 20.8076615,25.5962697 20.3406959,25.1293041 C19.8737303,24.6623385 19.2403891,24.4 18.58,24.4 L17.2,24.4 L17.2,20.92 C17.1960503,20.4400907 17.3916344,19.980106 17.74,19.65 C18.0861605,19.3021429 18.5593421,19.110703 19.05,19.12 L22.7,19.12 L22.7,17.74 C22.6912397,17.1279447 22.9333351,16.5389664 23.37,16.11 C23.7890657,15.6566396 24.3828001,15.4053041 25,15.42 C26.272336,15.4413883 27.2986117,16.467664 27.32,17.74 L27.32,19.12 L31,19.12 C31.4906579,19.110703 31.9638395,19.3021429 32.31,19.65 C32.6583656,19.980106 32.8539497,20.4400907 32.85,20.92 L32.85,24.62 L34.17,24.62 Z"/>
    </g>
    <g transform="translate(1144)">
      <path fill="#101F30" d="M31.8,17.5 L34.8,17.5 L34.8,25.5 L26.8,25.5 L26.8,34.5 C26.8,34.8 26.7,35 26.5,35.2 C26.3,35.4 26.1,35.5 25.8,35.5 L23.8,35.5 C23.5,35.5 23.3,35.4 23.1,35.2 C22.9,35 22.8,34.8 22.8,34.5 L22.8,23.5 L32.8,23.5 L32.8,19.5 L31.8,19.5 L31.8,20.5 C31.8,20.8 31.7,21 31.5,21.2 C31.3,21.4 31,21.5 30.8,21.5 L18.8,21.5 C18.5,21.5 18.3,21.4 18.1,21.2 C17.9,21 17.8,20.7 17.8,20.5 L17.8,16.5 C17.8,16.2 17.9,16 18.1,15.8 C18.3,15.6 18.5,15.5 18.8,15.5 L30.8,15.5 C31.1,15.5 31.3,15.6 31.5,15.8 C31.7,16 31.8,16.2 31.8,16.5 L31.8,17.5 Z"/>
      <rect width="52" height="52"/>
    </g>
    <g transform="translate(1092)">
      <rect width="52" height="52"/>
      <path fill="#101F30" d="M31.3,24.84 L33.18,24.84 C33.1990095,26.6269517 32.5168988,28.3501787 31.28,29.64 C30.0795495,30.9719291 28.4533993,31.8451011 26.68,32.11 L26.68,35.66 L24.5,35.66 L24.5,32.11 C22.7225468,31.8438148 21.0947432,30.9626776 19.9,29.62 C18.6715689,28.3328286 17.9904428,26.6192588 17.9999008,24.84 L19.83,24.84 C19.7981385,26.3333137 20.4276747,27.7644105 21.55,28.75 C22.6332516,29.767187 24.064033,30.3323457 25.55,30.33 C27.038494,30.3458462 28.4741295,29.7787702 29.55,28.75 C30.6823345,27.7692091 31.3229608,26.3378668 31.3,24.84 Z"/>
      <path fill="#101F30" d="M27.88,27.13 C27.2915022,27.7708783 26.4600799,28.1339448 25.59,28.13 C23.7940565,28.1245996 22.3364183,26.6758766 22.32,24.88 L22.32,18.38 C22.3141494,17.5037359 22.6770637,16.665404 23.32,16.07 C23.9318345,15.4581312 24.7647787,15.1191842 25.63,15.13 C26.4917829,15.1245634 27.3195566,15.4658771 27.9270575,16.0771397 C28.5345585,16.6884023 28.8707561,17.518267 28.86,18.38 L28.86,24.88 C28.8453415,25.730437 28.4927108,26.540048 27.88,27.13 Z"/>
    </g>
    <g transform="translate(1040)">
      <rect width="52" height="52"/>
      <path fill="#101F30" fill-rule="nonzero" d="M33.39,16.88 C33.533179,16.8597069 33.6775663,16.9079244 33.7798209,17.0101791 C33.8820756,17.1124337 33.9302931,17.256821 33.91,17.4 L33.91,32.49 C33.9284961,32.7193013 33.767235,32.9241465 33.54,32.96 L27.91,34.88 L21.91,32.77 L16.57,34.83 L16.43,34.88 C16.286821,34.9002931 16.1424337,34.8520756 16.0401791,34.7498209 C15.9379244,34.6475663 15.8897069,34.503179 15.91,34.36 L15.91,19.27 C15.8920056,19.0373575 16.0587477,18.8311239 16.29,18.8 L21.91,16.88 L27.91,18.99 L33.25,16.93 L33.39,16.88 Z M27.91,32.88 L27.91,21 L21.91,18.9 L21.91,30.75 L27.91,32.88 Z"/>
    </g>
    <g transform="translate(988)">
      <rect width="52" height="52"/>
      <path fill="#101F30" fill-rule="nonzero" d="M17,17.55 L36.18,17.55 L36.18,21.42 L17,21.42 L17,17.55 Z M17,27.17 L17,23.3 L36.18,23.3 L36.18,27.17 L17,27.17 Z M17,32.92 L17,29.05 L36.18,29.05 L36.18,32.92 L17,32.92 Z M20.82,20.43 L20.82,18.54 L18.93,18.54 L18.93,20.43 L20.82,20.43 Z M18.93,24.29 L18.93,26.18 L20.82,26.18 L20.82,24.29 L18.93,24.29 Z M18.93,30.04 L18.93,31.93 L20.82,31.93 L20.82,30 L18.93,30.04 Z"/>
    </g>
    <g transform="translate(936)">
      <rect width="8.4" height="10.4" x="16.4" y="16.1" fill="#101F30"/>
      <rect width="8.4" height="6.3" x="16.4" y="28.6" fill="#101F30"/>
      <rect width="8.3" height="6.3" x="26.8" y="16.1" fill="#101F30"/>
      <rect width="8.3" height="10.4" x="26.8" y="24.4" fill="#101F30"/>
      <rect width="52" height="52"/>
    </g>
    <g transform="translate(884)">
      <rect width="52" height="52"/>
      <polygon fill="#101F30" points="26 30.64 18.33 24.68 16.63 23.36 26 16.09 35.38 23.36 33.67 24.68"/>
      <polygon fill="#101F30" points="26 33.32 33.67 27.32 35.38 28.64 26 35.91 16.63 28.64 18.33 27.32"/>
    </g>
    <g transform="translate(832)">
      <rect width="52" height="52"/>
      <rect width="20.61" height="31.1" x="16" y="13.02"/>
      <path fill="#101F30" fill-rule="nonzero" d="M16,21.66 L21,21.66 L21,16.66 L36,16.66 L36,31.66 L31,31.66 L31,36.66 L16,36.66 L16,21.66 Z M18.52,26.66 L18.52,34.16 L28.52,34.16 L28.52,26.66 L18.52,26.66 Z M31,21.66 L31,29.16 L33.52,29.16 L33.52,19.16 L23.52,19.16 L23.52,21.68 L31,21.66 Z"/>
    </g>
    <g transform="translate(780)">
      <rect width="2.9" height="1.9" x="15.7" y="23.4" fill="#101F30"/>
      <rect width="2.5" height="1.9" x="18.467" y="29.885" fill="#101F30" transform="rotate(-45 19.717 30.835)"/>
      <path fill="#101F30" d="M29.2,19.4 C30.1,19.9 30.8,20.6 31.3,21.5 C31.8,22.4 32.1,23.4 32.1,24.4 C32.1,27.6 29.5,30.2 26.3,30.2 C23.1,30.2 20.6,27.6 20.5,24.5 C20.5,24.5 20.5,24.5 20.5,24.5 C20.5,23.5 20.8,22.5 21.3,21.6 C21.8,20.7 22.5,20 23.4,19.5 L23.4,14.9 L29.2,14.9 L29.2,19.4 Z"/>
      <rect width="1.9" height="2.8" x="25.3" y="32" fill="#101F30"/>
      <polygon fill="#101F30" points="31.3 30.7 32.6 29.4 34.4 31.1 33 32.4"/>
      <rect width="2.9" height="1.9" x="33.9" y="23.4" fill="#101F30"/>
      <rect width="52" height="52"/>
    </g>
    <g transform="translate(728)">
      <rect width="52" height="52"/>
      <path fill="#101F30" d="M31.77,29.53 L36.25,29.53 L36.25,35.17 L30.61,35.17 L30.61,31.74 L26.13,27 L21.64,31.75 L21.64,35.18 L16,35.18 L16,29.53 L20.48,29.53 L25,25 L25,21.46 C24.3409227,21.2212737 23.7693028,20.7890732 23.36,20.22 C22.402489,18.8851726 22.5505288,17.0537088 23.71,15.89 C24.6779582,14.9220468 26.134174,14.6335069 27.3980942,15.1592276 C28.6620144,15.6849483 29.484039,16.9211099 29.48,18.29 C29.4843319,18.9845491 29.2632712,19.6617669 28.85,20.22 C28.4406972,20.7890732 27.8690773,21.2212737 27.21,21.46 L27.21,25 L31.77,29.53 Z"/>
    </g>
    <g transform="translate(676)">
      <rect width="52" height="52"/>
      <path fill="#101F30" fill-rule="nonzero" d="M33.5,15.83 C33.9906579,15.820703 34.4638395,16.0121429 34.81,16.36 C35.1583656,16.690106 35.3539497,17.1500907 35.35,17.63 L35.35,32.33 C35.3511809,32.8064395 35.1558223,33.2622762 34.81,33.59 C34.4675727,33.9445542 33.9928082,34.1402586 33.5,34.13 L18.85,34.13 C18.3571918,34.1402586 17.8824273,33.9445542 17.54,33.59 C17.1941777,33.2622762 16.9988191,32.8064395 17,32.33 L17,17.63 C16.9960503,17.1500907 17.1916344,16.690106 17.54,16.36 C17.8861605,16.0121429 18.3593421,15.820703 18.85,15.83 L33.5,15.83 Z M22.5,21.33 L22.5,17.63 L18.85,17.63 L18.85,21.33 L22.5,21.33 Z M22.5,26.83 L22.5,23.13 L18.85,23.13 L18.85,26.83 L22.5,26.83 Z M22.5,32.33 L22.5,28.63 L18.85,28.63 L18.85,32.33 L22.5,32.33 Z M28,21.33 L28,17.63 L24.35,17.63 L24.35,21.33 L28,21.33 Z M28,26.83 L28,23.13 L24.35,23.13 L24.35,26.83 L28,26.83 Z M28,32.33 L28,28.63 L24.35,28.63 L24.35,32.33 L28,32.33 Z M33.5,21.33 L33.5,17.63 L29.85,17.63 L29.85,21.33 L33.5,21.33 Z M33.5,26.83 L33.5,23.13 L29.85,23.13 L29.85,26.83 L33.5,26.83 Z M33.5,32.33 L33.5,28.63 L29.85,28.63 L29.85,32.33 L33.5,32.33 Z"/>
    </g>
    <g transform="translate(624)">
      <rect width="4.5" height="9" x="16.9" y="25.8" fill="#101F30"/>
      <rect width="4.5" height="18" x="23.7" y="16.7" fill="#101F30"/>
      <rect width="4.5" height="12.4" x="30.4" y="22.4" fill="#101F30"/>
      <rect width="52" height="52"/>
    </g>
    <g transform="translate(572)">
      <path fill="#101F30" fill-rule="nonzero" d="M18.2695312,17.3222657 C20.4843861,15.1074108 23.1474454,14 26.2587891,14 C29.3701327,14 32.0244031,15.0986219 34.2216797,17.2958985 C36.4189563,19.4931751 37.5175781,22.1386564 37.5175781,25.2324219 C37.5175781,28.3261874 36.4189563,30.9716687 34.2216797,33.1689453 C32.0244031,35.3662219 29.3701327,36.4648438 26.2587891,36.4648438 C23.1474454,36.4648438 20.493175,35.3662219 18.2958984,33.1689453 C16.0986218,30.9716687 15,28.3261874 15,25.2324219 C15,22.1386564 16.0898329,19.501964 18.2695312,17.3222657 Z M25.125,34.1445313 L25.125,31.9824219 C24.4921843,31.9824219 23.9560569,31.7626975 23.5166016,31.3232422 C23.0771462,30.8837869 22.8574219,30.3476594 22.8574219,29.7148438 L22.8574219,28.6074219 L17.4785156,23.2285157 C17.3378899,23.9316442 17.2675781,24.5996062 17.2675781,25.2324219 C17.2675781,27.5175896 18.014641,29.5038978 19.5087891,31.1914063 C21.0029372,32.8789147 22.8749887,33.8632799 25.125,34.1445313 Z M32.8769531,31.296875 C34.4589923,29.5742102 35.25,27.552746 35.25,25.2324219 C35.25,23.3691313 34.7314505,21.6816482 33.6943359,20.1699219 C32.6572214,18.6581956 31.2949303,17.5683627 29.6074219,16.9003907 L29.6074219,17.375 C29.6074219,17.9726593 29.3876975,18.4912088 28.9482422,18.9306641 C28.5087869,19.3701194 27.9902374,19.5898438 27.3925781,19.5898438 L25.125,19.5898438 L25.125,21.8574219 C25.125,22.1738297 25.0107433,22.437499 24.7822266,22.6484375 C24.5537098,22.8593761 24.2988295,22.9648438 24.0175781,22.9648438 L21.75,22.9648438 L21.75,25.2324219 L28.5,25.2324219 C28.8164078,25.2324219 29.0800771,25.3466786 29.2910156,25.5751953 C29.5019542,25.8037121 29.6074219,26.0585924 29.6074219,26.3398438 L29.6074219,29.7148438 L30.7675781,29.7148438 C31.2597681,29.7148438 31.6992168,29.8642563 32.0859375,30.163086 C32.4726582,30.4619156 32.7363274,30.8398415 32.8769531,31.296875 Z"/>
      <rect width="52" height="52"/>
    </g>
    <g transform="translate(520)">
      <path fill="#101F30" fill-rule="nonzero" d="M34.0003753,20.0163753 C34.537517,20.0058293 35.0550978,20.2179288 35.4303753,20.6023753 C35.8148219,20.9776529 36.0269214,21.4952337 36.0163753,22.0323753 L36.0163753,32.0163753 C36.0269214,32.553517 35.8148219,33.0710978 35.4303753,33.4463753 C35.0550978,33.8308219 34.537517,34.0429214 34.0003753,34.0323753 L18.0163753,34.0323753 C17.4792337,34.0429214 16.9616529,33.8308219 16.5863753,33.4463753 C16.2019288,33.0710978 15.9898293,32.553517 16.0003753,32.0163753 L16.0003753,20.0163753 C15.9898293,19.4792337 16.2019288,18.9616529 16.5863753,18.5863753 C16.9616529,18.2019288 17.4792337,17.9898293 18.0163753,18.0003753 L24.0163753,18.0003753 L25.9843753,20.0163753 L34.0003753,20.0163753 Z M34.0003753,32.0163753 L34.0003753,22.0323753 L18.0163753,22.0323753 L18.0163753,32.0163753 L34.0003753,32.0163753 Z"/>
      <rect width="52" height="52"/>
    </g>
    <g transform="translate(468)">
      <rect width="52" height="52"/>
      <path fill="#101F30" fill-rule="nonzero" d="M17.81,15.51 L26.14,15.51 C26.678246,15.4390362 27.2210168,15.6029602 27.63,15.96 C28.0753454,16.3043262 28.3461172,16.8275743 28.37,17.39 L28.37,23 L30.2,20 C31.2,21.59 32.64,23.88 34.46,26.88 C36.28,29.88 37.46,31.74 37.87,32.49 L25.63,32.49 C24.8953902,33.3295026 23.9970234,34.0100835 22.99,34.49 C21.5746654,35.1013695 19.9842786,35.1725277 18.52,34.69 C15.4169117,33.742389 13.4458579,30.6992846 13.85,27.48 C14.0009113,25.882642 14.7426603,24.3991438 15.93,23.32 L15.93,17.94 C15.8595315,17.3491528 16.0129442,16.7533409 16.36,16.27 C16.6788532,15.7823777 17.2275819,15.4947681 17.81,15.51 Z M20.45,24 C19.5034888,24.0018491 18.5873678,24.3343409 17.86,24.94 C17.1154232,25.5753096 16.5702337,26.412193 16.29,27.35 C16.0219799,28.5071922 16.2821253,29.7236468 17,30.67 C17.6257029,31.6770925 18.6659391,32.3547111 19.84,32.52 C20.9673599,32.689718 22.1141314,32.377622 23,31.66 C23.9628252,30.9762453 24.5596852,29.8893706 24.62,28.71 C24.7465585,27.5199877 24.3667375,26.3316221 23.5734506,25.4356074 C22.7801637,24.5395928 21.646579,24.018572 20.45,24 Z M18.45,18.21 L18.45,21.86 C19.8060112,21.425174 21.2670933,21.4462473 22.61,21.92 C23.9632516,22.3410385 25.1291833,23.2172538 25.91,24.4 L25.91,18.2 L18.45,18.21 Z M30.2,24.8 L27.05,30 L33.4,30 L30.2,24.8 Z"/>
    </g>
    <g transform="translate(416)">
      <polygon fill="#101F30" points="29.2 19.9 35.3 19.9 35.3 30.7 27.7 30.7 27.2 28.6 21.2 28.6 21.2 36.1 19 36.1 19 17.7 28.8 17.7"/>
      <rect width="52" height="52"/>
    </g>
    <g transform="translate(364)">
      <path fill="#101F30" fill-rule="nonzero" d="M28,14.7 C29.9,16.2 31.4,18.2 32.5,20.4 C33.6,22.6 34.2,25.1 34.2,27.5 C34.2,31.7 30.8,35.1 26.5,35.1 C22.3,35.1 18.9,31.7 18.8,27.5 C18.8,24.4 19.9,21.3 21.9,19 L21.9,19.4 C21.9,20.3 22.2,21.2 22.9,21.9 C23.6,22.6 24.5,22.9 25.4,22.9 C26.3,22.9 27.1,22.6 27.7,21.9 C28.3,21.2 28.6,20.3 28.6,19.4 C28.6,18.7 28.5,18 28.4,17.3 C28.3,16.7 28.2,16.1 28.1,15.5 L28,14.7 Z M26.3,32.3 C28.8,32.3 30.9,30.3 30.9,27.7 C30.9,27.7 30.9,27.7 30.9,27.7 C30.9,26.4 30.7,25.1 30.3,23.8 C29.2,25.2 27.6,26 25.9,26.3 C25.1,26.4 24.4,26.8 23.9,27.4 C23.4,27.9 23.2,28.6 23.2,29.3 C23.2,30.1 23.5,30.9 24.1,31.4 C24.7,32 25.5,32.3 26.3,32.3 Z"/>
      <rect width="52" height="52"/>
    </g>
    <g transform="translate(312)">
      <path fill="#101F30" fill-rule="nonzero" d="M18.5,19.1 C20.6,17.6 23.2,16.8 25.8,16.8 C28.4,16.8 30.9,17.6 33,19.1 C35.1,20.5 36.7,22.6 37.6,25 C36.7,27.4 35.1,29.4 33,30.9 C28.6,33.9 22.9,33.9 18.5,30.9 C16.4,29.5 14.8,27.4 13.8,25 C14.8,22.5 16.4,20.5 18.5,19.1 Z M22,28.8 C23,29.8 24.4,30.4 25.8,30.4 C27.2,30.4 28.6,29.8 29.6,28.8 C31.7,26.7 31.7,23.3 29.6,21.1 C28.6,20.1 27.2,19.5 25.8,19.5 C22.8,19.5 20.4,21.9 20.4,24.9 C20.4,26.4 21,27.8 22,28.8 Z M23.5,22.6 C24.1,22 24.9,21.6 25.8,21.7 C26.7,21.7 27.5,22 28.1,22.6 C29.4,23.9 29.4,25.9 28.1,27.2 C28.1,27.2 28.1,27.2 28.1,27.2 C27.5,27.8 26.7,28.2 25.8,28.1 C24,28.1 22.6,26.7 22.6,24.9 C22.6,24.9 22.6,24.9 22.6,24.8 C22.6,24.1 22.9,23.2 23.5,22.6 Z"/>
      <rect width="52" height="52"/>
    </g>
    <g transform="translate(260)">
      <rect width="52" height="52"/>
      <rect width="22.65" height="27.3" x="14.75" y="14.51"/>
      <path fill="#101F30" fill-rule="nonzero" d="M34.25,18.08 C34.8255271,18.0746712 35.3795963,18.2982004 35.7903063,18.7014089 C36.2010163,19.1046174 36.43472,19.6544725 36.44,20.23 L36.44,33.23 C36.44,34.4395036 35.4595036,35.42 34.25,35.42 L16.94,35.42 C15.7304964,35.42 14.75,34.4395036 14.75,33.23 L14.75,20.23 C14.7473417,19.6544784 14.9734205,19.1014733 15.3785004,18.6926426 C15.7835803,18.283812 16.3344783,18.0526461 16.91,18.05 L34.25,18.05 L34.25,18.08 Z M34.25,22.45 L34.25,20.26 L25.57,25.7 L16.94,20.26 L16.94,22.45 L25.57,27.83 L34.25,22.45 Z"/>
    </g>
    <g transform="translate(208)">
      <path fill="#101F30" fill-rule="nonzero" d="M33.9,22.8 C36.8,23 39.1,25.4 39.1,28.4 C39.1,31.5 36.6,34 33.5,34 L18.9,34 C15.2,34 12.2,31 12.1,27.2 C12.1,25.5 12.7,23.9 13.8,22.7 C14.9,21.5 16.4,20.7 18.1,20.5 C18.8,19.1 19.9,18 21.2,17.2 C24.3,15.3 28.2,15.6 31,17.9 C32.5,19.2 33.6,20.9 33.9,22.8 Z M33.5,31.8 C34.4,31.8 35.3,31.5 35.9,30.8 C37.2,29.5 37.2,27.4 35.9,26.1 C35.3,25.4 34.4,25.1 33.5,25.1 L31.8,25.1 L31.8,24.5 C31.8,21.1 29,18.4 25.6,18.3 C23.6,18.3 21.8,19.2 20.6,20.8 C22,21.2 23.3,22.1 24.2,23.2 C25.1,24.4 25.6,25.8 25.6,27.3 L23.4,27.3 C23.4,26.1 23,24.9 22.1,24 C20.3,22.3 17.5,22.3 15.7,24 C13.9,25.7 14,28.6 15.7,30.4 C16.5,31.3 17.7,31.7 18.9,31.7 L33.5,31.8 Z"/>
      <rect width="52" height="52"/>
    </g>
    <g transform="translate(156)">
      <rect width="52" height="52"/>
      <polygon fill="#101F30" points="21.59 30.61 33.12 19.09 34.59 20.61 21.59 33.61 15.55 27.57 17.07 26.04"/>
    </g>
    <g transform="translate(104)">
      <rect width="52" height="52"/>
      <path fill="#101F30" d="M24.84 34C27.2584981 34.0461408 29.5526694 32.9306604 31.01 31L33.91 32.74C31.8060565 35.6458144 28.4274336 37.3556137 24.84 37.33 18.6573161 37.3300613 13.6375275 32.3326226 13.61 26.15 13.5641108 23.3414812 14.6152381 20.6257701 16.54 18.58 18.3935939 16.5149542 20.9650078 15.2346118 23.73 15L23.73 18.37C19.8742373 18.9473764 17.016232 22.2512815 17 26.15 16.9999965 30.481533 20.5084705 33.9944821 24.84 34zM26 15C31.7384642 15.564794 36.1166502 20.383824 36.13 26.15 36.1258021 27.733588 35.7849315 29.298184 35.13 30.74L32.13 29C32.5086927 28.0973301 32.7057811 27.1288787 32.71 26.15 32.7386076 24.2550822 32.0572869 22.4180133 30.8 21 29.5773898 19.5582958 27.8705786 18.6124379 26 18.34L26 15z"/>
    </g>
    <g transform="translate(52)">
      <rect width="52" height="52"/>
      <path fill="#101F30" fill-rule="nonzero" d="M26.72,15.12 L35.4,19.71 L35.4,21.56 L18,21.56 L18,19.71 L26.72,15.12 Z M18,34.37 L18,31.62 L35.4,31.62 L35.4,34.37 L18,34.37 Z M19.85,23.37 L22.6,23.37 L22.6,29.81 L19.85,29.81 L19.85,23.37 Z M25.35,23.37 L28.1,23.37 L28.1,29.81 L25.35,29.81 L25.35,23.37 Z M30.85,23.37 L33.6,23.37 L33.6,29.81 L30.85,29.81 L30.85,23.37 Z"/>
    </g>
    <polygon fill="#101F30" points="20.5 23.3 23.3 23.3 23.3 25.2 20.5 25.2 20.5 28.1 18.5 28.1 18.5 25.2 15.6 25.2 15.6 23.3 18.5 23.3 18.5 20.4 20.5 20.4"/>
    <path fill="#101F30" d="M25.9 27.6C26.9 27.3 28 27.2 29 27.2 30.1 27.2 31.1 27.3 32.1 27.6 33.2 27.9 34.3 28.3 35.2 28.9 36 29.3 36.6 30.1 36.6 31L36.6 32.9 21.4 32.9 21.4 31C21.5 30.1 22 29.3 22.8 28.9 23.8 28.3 24.8 27.8 25.9 27.6zM31.8 24.1C30.3 25.6 27.9 25.6 26.4 24.1 26.4 24.1 26.4 24.1 26.4 24.1 24.9 22.6 24.9 20.2 26.4 18.7 27.9 17.2 30.3 17.2 31.8 18.7 32.5 19.4 32.9 20.4 32.9 21.4 32.9 22.4 32.5 23.4 31.8 24.1z"/>
    <rect width="52" height="52"/>
  </g>
</svg>
